<svg width="455" height="324" viewBox="0 0 455 324" fill="none" xmlns="http://www.w3.org/2000/svg">
<circle cx="220.5" cy="172.5" r="115.5" fill="#8CC498"/>
<path d="M193.821 223.126C188.944 219.7 189.047 219.947 188.948 219.591C188.847 219.233 188.968 219.013 190.501 215.722C190.445 215.429 190.253 215.171 189.977 215.038C186.802 213.521 182.761 214.293 180.372 216.873C180.059 217.211 180.032 217.725 180.309 218.093C181.387 219.53 182.868 220.626 184.522 221.289C182.007 222.842 180.741 225.668 179.865 228.451C179.663 229.093 180.172 229.724 180.819 229.689C181.875 229.634 183.053 229.84 184.278 229.846C188.376 229.861 192.107 227.607 194.07 224.391C194.327 223.968 194.225 223.41 193.821 223.126Z" fill="black"/>
<path d="M305.573 99.765C305.493 98.2652 304.148 97.1351 302.631 97.3504C277.574 101.011 250.899 106.264 223.35 112.957C222.969 113.05 222.622 113.225 222.33 113.464C222.039 113.225 221.692 113.05 221.311 112.957C195.636 106.717 168.702 101.248 142.029 97.3504C140.556 97.1256 139.167 98.2385 139.087 99.765C136.895 140.626 135.937 183.37 136.238 226.808C136.245 228.011 137.103 229.068 138.277 229.32C187.586 239.952 228.396 240.373 229.059 240.44C243.311 241.94 296.708 247.32 298.671 247.32C299.231 247.32 299.839 247.24 300.407 246.933C301.853 246.155 301.968 244.518 302.05 243.321C302.05 243.321 302.317 240.297 302.408 239.125C303.18 239.056 304.068 238.841 304.725 238.157C305.793 237.044 305.684 235.834 305.707 229.461L306.382 229.318C307.555 229.066 308.413 228.009 308.423 226.806C308.724 183.368 307.765 140.626 305.573 99.765ZM171.526 137.053C162.851 144.701 149.869 146.877 139.172 142.49C139.283 139.031 139.403 135.582 139.531 132.144C148.198 135.393 158.962 133.636 165.46 127.904C171.931 122.2 174.972 112.966 173.289 104.522C175.872 105.008 178.465 105.509 181.071 106.024C183.893 117.088 180.097 129.491 171.525 137.051L171.526 137.053ZM140.991 99.866C141.012 99.4658 141.368 99.1781 141.755 99.2333C151.364 100.638 161.213 102.277 171.258 104.143C173.156 112.135 170.364 121.039 164.201 126.474C158.129 131.827 147.584 133.386 139.605 130.128C139.992 119.939 140.453 109.845 140.989 99.8641L140.991 99.866ZM138.679 227.456C138.372 227.389 138.147 227.111 138.145 226.795C137.951 198.978 138.277 171.448 139.111 144.516C150.34 148.825 163.768 146.437 172.788 138.482C181.659 130.659 185.709 117.95 183.131 106.435C195.468 108.905 208.069 111.701 220.863 114.809C221.158 114.881 221.372 115.139 221.383 115.436C222.14 135.437 222.677 156.379 222.991 178.093C212.393 172.7 191.731 175.257 177.337 191.479C168.306 201.66 163.747 216.492 164.738 232.337C155.928 230.928 147.234 229.303 138.681 227.458L138.679 227.456ZM223.296 237.646C223.296 238.014 222.995 238.336 222.587 238.323C203.612 237.387 184.897 235.481 166.665 232.64C164.668 203.726 181.084 182.598 204.296 178.063C209.762 176.995 217.522 177.026 223.02 180.279C223.275 198.877 223.369 218.034 223.296 237.644V237.646ZM225.149 238.161C225.475 236.586 225.032 188.009 224.92 179.879C228.173 177.954 232.265 178.476 234.506 178.993C244.797 181.363 252.199 190.126 256.594 197.059C264.255 209.14 267.887 220.574 268.333 234.05C254.168 235.984 239.739 237.36 225.149 238.161ZM300.197 242.616C299.982 245.128 300.054 245.572 297.889 245.364C280.747 243.763 263.435 242.067 246.177 240.303C261.173 239.634 255.923 239.146 300.498 239.161C300.411 240.266 300.302 241.412 300.199 242.618L300.197 242.616ZM303.742 235.094C303.71 236.941 303.422 237.253 301.449 237.253C218.023 237.242 245.655 242.071 303.799 229.869C303.792 231.651 303.773 233.406 303.74 235.094H303.742ZM306.519 226.795C306.517 227.113 306.292 227.389 305.983 227.456C294.307 229.973 282.367 232.085 270.231 233.787C269.747 220.041 266.021 208.364 258.204 196.04C253.617 188.803 245.855 179.65 234.933 177.134C232.608 176.599 228.503 176.071 224.89 177.744C223.973 114.805 222.53 115.116 223.801 114.807C251.294 108.127 277.91 102.889 302.907 99.2333C303.308 99.1781 303.649 99.4735 303.672 99.866C305.859 140.687 306.818 183.393 306.517 226.795H306.519Z" fill="black"/>
<path d="M155.496 117.187C154.764 113.896 149.944 113.89 148.688 117.993C147.968 120.345 149.081 122.081 150.918 122.449C153.95 123.063 156.092 119.851 155.496 117.187Z" fill="black"/>
<path d="M162.036 109.976C161.529 106.957 157.451 104.764 155.419 107.538C153.617 110.004 156.128 113.986 158.975 113.986C160.978 113.986 162.362 111.904 162.036 109.976Z" fill="black"/>
<path d="M151.979 107.936C150.988 104.709 146.182 105.109 145.258 109.279C144.73 111.661 145.957 113.321 147.836 113.544C150.901 113.912 152.784 110.55 151.979 107.936Z" fill="black"/>
<path d="M206.38 149.573C206.172 149.573 187.225 146.257 185.839 145.979C185.323 145.876 184.989 145.373 185.092 144.859C185.195 144.342 185.695 144.001 186.215 144.112C188.53 144.577 188.953 144.63 206.542 147.683C207.683 147.881 207.54 149.573 206.38 149.573Z" fill="black"/>
<path d="M196.375 153.154C196.111 153.154 195.846 153.044 195.659 152.828C194.536 152.724 195.632 152.882 185.377 150.967C184.859 150.869 184.518 150.374 184.613 149.856C184.708 149.337 185.206 148.99 185.722 149.091L196.004 151.028C197.921 151.382 197.496 153.152 196.377 153.152L196.375 153.154Z" fill="black"/>
<path d="M203.373 159.726C202.714 159.726 196.674 158.062 184.596 156.267C184.075 156.189 183.715 155.705 183.793 155.185C183.872 154.664 184.357 154.312 184.876 154.382C191.113 155.308 197.406 156.475 203.579 157.843C204.684 158.089 204.505 159.726 203.373 159.726Z" fill="black"/>
<path d="M159.891 192.611C158.723 192.611 153.759 191.927 149.41 190.723C148.903 190.581 148.605 190.055 148.746 189.549C148.887 189.042 149.412 188.746 149.919 188.885C153.2 189.796 156.583 190.408 159.975 190.709C161.178 190.816 161.1 192.611 159.891 192.611Z" fill="black"/>
<path d="M156.079 196.371C155.888 196.371 155.879 196.346 149.453 195.212C148.934 195.121 148.589 194.625 148.681 194.107C148.772 193.591 149.266 193.238 149.786 193.335L156.245 194.481C157.384 194.681 157.238 196.371 156.079 196.371Z" fill="black"/>
<path d="M158.459 201.198L148.995 199.752C148.475 199.672 148.118 199.186 148.198 198.666C148.278 198.145 148.764 197.785 149.285 197.869L158.602 199.304C159.757 199.481 159.627 201.198 158.459 201.198Z" fill="black"/>
<path d="M216.677 208.869C212.673 205.89 203.444 199.022 198.74 201.025C197.261 201.654 196.324 203.003 195.562 204.217C192.526 209.052 190.153 214.104 188.232 218.404C187.733 219.522 187.946 220.287 188.956 220.982C194.241 224.626 200.233 228.754 207.211 229.609C209.514 229.897 210.739 229.356 212.094 227.021C214.242 223.32 218.278 216.677 218.33 212.32C218.354 210.318 217.737 209.66 216.679 208.871L216.677 208.869ZM216.422 212.296C216.374 216.174 212.397 222.695 210.442 226.069C209.481 227.727 208.986 227.906 207.442 227.719C198.706 226.648 190.599 219.357 189.905 219.357C190.563 217.571 194.231 209.923 197.174 205.231C198.792 202.654 199.876 201.968 203.028 203.011C207.648 204.532 211.659 207.516 215.538 210.399C216.224 210.912 216.435 211.087 216.42 212.298L216.422 212.296Z" fill="black"/>
<path d="M212.361 208.158C212.881 208.08 213.24 207.594 213.159 207.074C213.079 206.552 212.593 206.193 212.075 206.275C209.645 206.643 207.261 207.282 204.97 208.16C203.852 206.708 202.516 205.172 200.789 204.128C200.339 203.855 199.753 204 199.48 204.45C199.207 204.899 199.352 205.484 199.802 205.759C201.113 206.554 202.205 207.741 203.147 208.924C201.677 209.588 200.254 210.352 198.891 211.213C195.082 207.588 194.222 210.964 195.703 211.398C196.265 211.562 196.776 211.89 197.262 212.307C195.703 213.42 194.233 214.665 192.88 216.029C192.511 216.403 192.513 217.007 192.886 217.376C193.262 217.748 193.866 217.742 194.233 217.371C195.579 216.014 197.046 214.783 198.609 213.689C199.65 214.87 200.688 216.094 201.693 217.319C199.692 218.413 197.748 219.61 195.869 220.902C195.434 221.201 195.325 221.794 195.623 222.228C195.922 222.661 196.517 222.772 196.947 222.472C198.866 221.152 200.86 219.936 202.908 218.829C203.917 220.094 204.902 221.377 205.857 222.669C206.169 223.092 206.766 223.181 207.189 222.869C207.612 222.556 207.701 221.96 207.389 221.537C206.493 220.323 205.571 219.12 204.629 217.931C205.807 217.34 207.002 216.786 208.212 216.267C209.159 217.811 210.055 219.383 210.895 220.98C211.141 221.445 211.717 221.624 212.184 221.378C212.649 221.135 212.828 220.557 212.582 220.092C209.884 214.962 209.695 215.648 210.371 215.387C210.863 215.198 211.107 214.645 210.916 214.156C210.728 213.666 210.175 213.422 209.685 213.611C209.447 213.702 209.211 213.797 208.973 213.891C208.071 212.482 207.132 211.103 206.152 209.755C208.161 209.022 210.24 208.484 212.357 208.164L212.361 208.158ZM207.191 214.628C205.914 215.181 204.652 215.774 203.413 216.406C202.369 215.126 201.304 213.864 200.219 212.627C201.536 211.815 202.912 211.097 204.332 210.479C205.325 211.831 206.28 213.216 207.193 214.628H207.191Z" fill="black"/>
<path d="M207.168 197.238C206.348 193.492 205.378 189.73 204.282 186.059C204.019 185.177 203.657 184.313 202.802 183.986C201.656 183.549 200.404 184.493 200.124 185.678C199.812 187.008 200.177 187.605 202.809 195.073C203.187 196.146 203.615 197.362 204.273 198.418C205.207 199.923 207.547 198.969 207.168 197.238Z" fill="black"/>
<path d="M214.707 187.643C214.29 186.576 213.08 185.825 212.028 186.25C210.897 186.701 210.68 188.064 210.617 189.047L210.025 198.062C209.874 200.358 211.755 200.711 212.853 199.544C213.482 198.877 213.628 197.93 213.735 197.238C214.934 189.507 215.182 188.855 214.707 187.643Z" fill="black"/>
<path d="M243.135 227.031C242.611 224.843 242.891 222.625 242.891 220.536C242.891 212.202 238.25 204.013 231.344 200.156C230.378 199.617 230.965 198.132 232.038 198.399C251.114 203.119 258.063 222.278 253.014 229.522C250.156 233.629 244.469 232.6 243.135 227.031ZM237.204 202.249C241.946 206.994 245.043 213.784 244.759 222.23C244.707 223.763 244.658 225.209 244.989 226.589C246.234 231.79 252.264 231.401 252.631 224.378C253.022 216.959 247.751 207.213 237.206 202.25L237.204 202.249Z" fill="black"/>
<path d="M234.005 209.481C231.908 210.15 230.542 212.45 230.959 214.613C231.358 216.677 233.319 218.259 235.407 218.259C237.73 218.259 239.754 216.275 239.888 214.007C240.059 211.053 237.203 208.459 234.005 209.481ZM237.986 213.897C237.913 215.118 236.781 216.265 235.562 216.347C234.34 216.433 233.063 215.452 232.831 214.251C232.566 212.877 233.66 211.154 235.447 211.154C236.93 211.154 238.064 212.543 237.986 213.897Z" fill="black"/>
<path d="M238.371 217.392C235.579 216.33 232.694 218.621 233.604 221.689C234.317 224.087 236.825 224.957 238.868 223.688C241.41 222.106 241.14 218.44 238.373 217.39L238.371 217.392ZM237.86 222.07C235.407 223.601 234.115 219.044 236.972 219.044C238.813 219.044 239.347 221.15 237.86 222.07Z" fill="black"/>
<path d="M230.996 231.586C228.061 231.586 226.585 228.352 227.717 226.13C228.603 224.388 230.937 223.574 232.694 224.433C236.264 226.181 235.147 231.586 230.996 231.586ZM229.415 226.995C228.991 227.826 229.363 229.034 230.181 229.484C230.998 229.933 232.218 229.596 232.689 228.79C232.765 228.653 233.032 227.942 232.833 227.263C232.357 225.621 230.101 225.647 229.415 226.995Z" fill="black"/>
<path d="M284.466 169.327C279.341 169.327 274.905 166.359 273.176 162.472C271.88 159.558 272.277 155.724 274.26 151.954C276.279 148.124 280.568 145.318 284.938 144.974C299.929 143.822 300.211 169.327 284.466 169.327ZM285.874 146.843C281.842 146.843 277.782 149.359 275.947 152.842C273.71 157.092 273.492 161.273 277.001 164.553C281.784 169.024 290.747 168.595 293.528 161.152C295.851 154.933 292.973 146.843 285.874 146.843Z" fill="black"/>
<path d="M283.665 136.142C275.404 136.142 268.421 128.473 273.544 118.748C277.599 111.051 289.329 108.621 293.884 116.953C298.109 124.683 294.002 136.142 283.665 136.142ZM285.154 113.635C276.265 113.635 270.316 124.587 275.791 130.823C278.541 133.956 283.309 135.084 287.383 133.577C296.523 130.188 295.405 113.635 285.154 113.635Z" fill="black"/>
<path d="M276.293 198.567C281.639 197.574 286.992 196.295 292.204 194.77C292.711 194.625 293.239 194.913 293.386 195.416C293.533 195.921 293.245 196.451 292.738 196.6C287.465 198.144 282.049 199.436 276.64 200.442C275.392 200.68 275.062 198.797 276.291 198.569L276.293 198.567Z" fill="black"/>
<path d="M276.715 205.319C275.528 205.319 275.423 203.565 276.601 203.421C280.336 202.961 284.054 202.148 287.648 201.004C288.15 200.844 288.685 201.122 288.845 201.623C289.005 202.125 288.727 202.66 288.226 202.82C283.027 204.473 277.433 205.319 276.715 205.319Z" fill="black"/>
<path d="M239.607 160.216C238.363 160.216 238.338 158.344 239.583 158.31C244.463 158.18 249.39 157.767 254.225 157.083C254.741 157.003 255.227 157.37 255.301 157.893C255.376 158.413 255.012 158.895 254.491 158.969C248.544 159.812 242.011 160.216 239.607 160.216Z" fill="black"/>
<path d="M238.821 165.307C237.649 165.307 237.523 163.585 238.682 163.411C244.489 162.552 250.406 161.982 256.27 161.719C256.786 161.671 257.242 162.104 257.265 162.628C257.288 163.154 256.882 163.6 256.356 163.623C244.014 164.177 240.071 165.307 238.821 165.307Z" fill="black"/>
<path d="M238.018 127.911C236.856 127.911 236.716 126.207 237.864 126.019L255.065 123.164C255.583 123.07 256.075 123.429 256.161 123.947C256.247 124.465 255.896 124.957 255.378 125.043L238.018 127.911Z" fill="black"/>
<path d="M237.986 132.727C236.816 132.727 236.686 131.008 237.845 130.833C245.157 129.72 252.559 128.523 259.847 127.277C260.367 127.191 260.859 127.536 260.946 128.054C261.034 128.573 260.687 129.066 260.167 129.154C255.923 129.88 238.575 132.727 237.986 132.727Z" fill="black"/>
<path d="M288.527 123.688C287.574 122.52 285.407 122.384 283.96 122.857C286.049 122.116 287.29 120.244 287.276 119.43C287.254 118.07 284.883 117.296 283.644 119.859C283.314 120.541 283.128 121.292 283.101 122.051C280.877 119.181 275.92 120.818 278.228 122.457C279.478 123.347 281.207 123.514 282.607 122.884C280.219 124.536 279.15 127.347 279.341 128.006C279.461 128.42 279.949 128.641 280.376 128.584C281.37 128.454 283.371 126.463 283.676 123.73C283.513 125.7 287.677 127.276 288.734 125.607C289.102 125.026 288.959 124.219 288.525 123.686L288.527 123.688Z" fill="black"/>
<path d="M290.214 151.344C288.125 150.561 286.398 151.531 285.548 152.888C283.545 148.708 277.416 151.123 277.935 155.161C278.143 156.783 279.402 158.157 280.967 158.561C278.255 161.058 280.408 164.949 283.791 164.949C286.861 164.949 289.106 161.599 288.235 159.009C290.208 159.306 292.222 157.936 292.683 155.996C293.135 154.113 292.028 152.026 290.214 151.344ZM283.543 156.878C283.845 155.666 285.72 154.956 286.497 155.807C287.122 156.493 287.172 158.136 285.712 158.597C284.359 159.026 283.29 157.9 283.543 156.878ZM279.823 154.917C279.57 152.939 282.964 151.417 283.904 153.896C282.608 154.47 281.783 155.59 281.628 156.755C280.736 156.615 279.938 155.811 279.823 154.917ZM284.138 163.015C282.255 163.329 280.447 161.088 282.69 159.63C283.751 160.648 285.196 160.839 286.515 160.335C286.433 161.574 285.392 162.809 284.138 163.015ZM290.831 155.552C290.619 156.434 289.714 157.13 288.801 157.141C288.857 155.84 288.285 154.559 287.147 153.923C288.363 151.922 291.349 153.385 290.831 155.552Z" fill="black"/>
<path d="M365.597 255.496C360.983 255.031 357.396 251.302 357.07 246.629C355.673 226.601 355.677 206.311 357.082 186.323C357.419 181.528 361.196 177.691 365.865 177.4C393.007 175.7 419.507 175.7 444.628 177.394C449.213 177.705 452.873 181.269 453.332 185.869C455.161 204.249 455.11 224.793 453.177 246.93C452.785 251.424 449.229 255.037 444.724 255.525C420.162 258.18 393.573 258.311 365.597 255.496ZM365.985 179.302C362.263 179.534 359.254 182.61 358.984 186.456C357.585 206.355 357.581 226.556 358.972 246.496C359.233 250.24 362.101 253.229 365.789 253.6C392.933 256.333 419.421 256.339 444.522 253.629C448.125 253.24 450.969 250.353 451.283 246.762C453.204 224.743 453.257 204.319 451.439 186.056C451.073 182.385 448.158 179.54 444.504 179.294C418.689 177.554 392.228 177.659 365.989 179.3L365.985 179.302Z" fill="black"/>
<path d="M390.334 205.749C389.585 202.394 389.991 199.012 392.575 196.536C394.847 194.362 397.757 194.329 400.669 193.799C403.51 193.281 405.124 191.734 406.538 189.31C408.276 186.331 410.922 184.4 414.48 184.421C414.588 184.421 414.584 184.263 414.48 184.254C411.488 183.989 408.538 185.182 406.617 187.503C405.498 188.856 404.68 190.554 403.104 191.45C399.79 193.334 394.25 191.444 390.429 196.637C388.51 199.244 388.152 203.161 389.93 205.92C390.067 206.134 390.393 205.998 390.338 205.749H390.334Z" fill="black"/>
<path d="M429.158 183.866C426.269 183.58 424.136 185.684 422.899 188.093C421.331 191.146 421.165 194.89 418.751 197.493C415.943 200.519 412.134 200.315 408.362 200.755C405.791 201.055 402.912 202.078 402.087 204.788C402.005 205.055 402.424 205.244 402.546 204.982C405.267 199.103 413.426 203.957 419.309 198.831C421.592 196.841 422.352 193.833 423.256 191.066C424.161 188.288 425.876 184.827 429.158 184.446C429.526 184.404 429.531 183.904 429.158 183.866Z" fill="black"/>
<path d="M432.447 193.195C432.48 197.108 432.205 200.186 428.809 202.301C425.812 204.171 422.118 204.262 419.14 206.139C418.783 206.364 419.008 207.018 419.441 206.854C423.467 205.314 431.098 204.67 432.539 198.768C432.983 196.946 432.834 195.042 432.651 193.195C432.638 193.067 432.446 193.06 432.447 193.195Z" fill="black"/>
<path d="M427.831 219.15C426.955 210.593 412.117 208.009 403.468 208.009C394.525 208.009 378.293 211.247 379.164 219.824C378.293 222.738 378.4 225.999 378.695 228.982C379.469 236.778 382.061 240.609 392.039 243.806C392.079 244.66 392.487 245.533 393.206 246.185C394.079 246.976 395.186 247.315 396.152 247.57C400.81 248.805 405.734 249.156 410.436 247.856C411.497 247.565 412.843 247.1 413.836 246.091C414.213 245.708 415.055 244.853 415.099 243.704C419.762 242.148 423.866 239.646 425.97 235C428.14 230.207 428.323 224.316 427.831 219.15ZM403.468 209.915C411.171 209.915 425.929 212.354 425.861 219.746C425.733 220.697 425.243 221.614 424.451 222.475C422.427 220.059 419.362 218.334 414.878 217.074C405.174 214.353 387.732 213.917 382.52 222.513C381.567 221.49 381.041 220.389 381.041 219.243C381.041 214.187 391.311 209.915 403.47 209.915H403.468ZM423.021 223.735C414.327 230.131 392.809 230.188 383.984 223.787C388.371 215.817 405.521 216.427 414.363 218.908C418.484 220.065 421.255 221.606 423.021 223.735ZM416.042 241.236C408.534 244.13 399.832 244.475 391.601 241.596C381.823 238.177 380.382 234.545 380.359 222.834C387.226 232.555 417.254 233.13 425.868 223.708C425.83 232.017 424.18 238.099 416.042 241.236Z" fill="black"/>
<path d="M415.263 220.794C415.221 220.269 414.765 219.878 414.238 219.92C412.503 220.057 410.784 220.331 409.098 220.737C408.044 220.257 406.973 219.819 405.887 219.42C408.084 218.973 410.306 218.698 412.444 218.458C412.966 218.399 413.344 217.926 413.285 217.404C413.226 216.882 412.753 216.51 412.231 216.564C409.048 216.922 405.683 217.355 402.422 218.309C400.909 217.89 399.371 217.547 397.81 217.284C396.55 217.09 396.263 218.954 397.494 219.163C398.052 219.258 398.607 219.363 399.159 219.478C395.674 220.983 399.049 220.366 392.758 219.489C392.239 219.413 391.755 219.779 391.683 220.301C391.611 220.821 391.975 221.303 392.495 221.376C393.33 221.492 394.162 221.643 394.988 221.824C394.006 222.533 393.122 223.312 392.339 224.162C391.98 224.549 392.005 225.151 392.39 225.509C392.781 225.87 393.381 225.841 393.737 225.456C394.782 224.326 396.032 223.327 397.475 222.47C398.708 222.841 399.922 223.283 401.105 223.792C400.35 224.198 399.611 224.635 398.891 225.098C398.448 225.382 398.319 225.972 398.605 226.415C398.889 226.855 399.474 226.986 399.922 226.7C401.002 226.005 402.125 225.378 403.28 224.823C404.192 225.296 405.084 225.81 405.946 226.367C406.394 226.653 406.98 226.521 407.263 226.081C407.546 225.639 407.419 225.048 406.977 224.764C406.491 224.452 405.995 224.151 405.494 223.863C406.609 223.428 407.75 223.059 408.909 222.754C410.1 223.318 411.27 223.939 412.416 224.614C412.879 224.886 413.458 224.722 413.721 224.276C413.99 223.823 413.837 223.24 413.384 222.971C412.886 222.677 412.387 222.395 411.88 222.123C412.711 221.989 413.548 221.886 414.386 221.822C414.91 221.78 415.303 221.32 415.261 220.796L415.263 220.794ZM403.314 222.706C402.191 222.161 401.036 221.675 399.861 221.252C400.699 220.888 401.595 220.556 402.441 220.295C403.712 220.665 404.966 221.092 406.197 221.576C405.22 221.907 404.257 222.285 403.314 222.706Z" fill="black"/>
<path d="M404.951 171.214C404.425 171.197 404.017 170.747 404.04 170.221C404.116 168.447 404.176 166.665 404.229 164.878C404.244 164.353 404.682 163.965 405.208 163.953C405.734 163.969 406.148 164.409 406.133 164.935C406.079 166.73 406.02 168.521 405.944 170.303C405.919 170.865 405.45 171.231 404.951 171.214ZM404.467 155.354C404.515 153.443 404.566 151.533 404.627 149.632C404.671 148.336 406.573 148.456 406.533 149.694C406.47 151.591 406.419 153.494 406.373 155.4C406.342 156.669 404.437 156.595 404.467 155.354ZM332.946 147.019C331.732 147.019 331.663 145.21 332.874 145.115C334.787 144.966 336.693 144.835 338.591 144.718C339.904 144.703 339.921 146.546 338.709 146.62C336.82 146.737 332.971 147.019 332.946 147.019ZM399.6 146.914L393.846 146.657C393.32 146.634 392.913 146.19 392.935 145.664C392.958 145.138 393.414 144.738 393.928 144.753C395.826 144.835 397.73 144.92 399.644 145.01C400.873 145.069 400.831 146.914 399.6 146.914ZM384.369 146.289C384.369 146.289 380.529 146.167 378.629 146.117C377.423 146.085 377.358 144.25 378.678 144.212C380.582 144.261 382.49 144.32 384.4 144.385C385.638 144.427 385.608 146.291 384.367 146.291L384.369 146.289ZM348.167 146.167C346.929 146.167 346.896 144.305 348.133 144.261C350.046 144.192 351.956 144.139 353.862 144.099C355.171 144.126 355.121 145.978 353.902 146.005C352.005 146.045 348.165 146.165 348.165 146.165L348.167 146.167ZM369.129 145.938C369.129 145.938 365.369 145.906 363.491 145.906C362.965 145.906 362.499 145.479 362.499 144.953C362.499 144.427 362.884 144 363.411 144C363.411 144 367.257 144.011 369.14 144.032C369.666 144.038 370.089 144.469 370.083 144.995C370.078 145.517 369.651 145.938 369.129 145.938Z" fill="black"/>
<path d="M89.1839 102.985C89.8986 102.993 90.1502 102.383 90.1559 102.051C90.1883 100.391 90.2397 98.5656 90.3045 96.3492C90.3198 95.8232 89.9062 95.3849 89.3802 95.3678C88.8352 95.383 88.414 95.7661 88.3988 96.292C88.334 98.5161 88.2825 100.347 88.2482 102.009C88.2387 102.535 88.656 102.976 89.182 102.981L89.1839 102.985Z" fill="black"/>
<path d="M89.5951 87.7558C90.3021 87.7653 90.5632 87.1726 90.5727 86.8277L90.7137 81.1104C90.7252 80.5844 90.3097 80.1385 89.7837 80.1347C89.2673 80.1328 88.8213 80.5387 88.808 81.0647L88.6689 86.7762C88.6536 87.3022 89.0691 87.7501 89.5951 87.7558Z" fill="black"/>
<path d="M110.367 125.747C108.47 125.848 106.565 125.859 104.659 125.905C103.414 125.935 103.437 127.811 104.682 127.811C104.682 127.811 108.527 127.713 110.429 127.65C110.955 127.633 111.369 127.193 111.35 126.667C111.333 126.143 110.902 125.718 110.367 125.747Z" fill="black"/>
<path d="M89.5158 118.212C90.0418 118.195 90.4477 117.743 90.4267 117.219C90.3296 115.008 90.259 113.162 90.2076 111.523C90.1695 110.225 88.2637 110.343 88.3018 111.58C88.3514 113.227 88.4238 115.083 88.521 117.301C88.5458 117.867 89.0203 118.227 89.5158 118.212Z" fill="black"/>
<path d="M95.1259 126.144C93.3821 126.195 91.6422 126.254 89.9098 126.33C88.6749 126.384 88.7149 128.234 89.9499 128.234C89.9499 128.234 93.4469 128.101 95.1831 128.05C95.7091 128.034 96.1226 127.594 96.1074 127.068C96.0921 126.542 95.6462 126.138 95.1259 126.144Z" fill="black"/>
<path d="M105.216 20.1324C83.4449 20.1324 65.731 31.5955 65.731 45.6828C65.731 50.836 66.9525 58.9774 69.531 65.4512C72.4259 72.7121 77.3103 78.1969 83.2868 80.8993C84.4378 81.4195 85.2135 79.6796 84.0719 79.1631C74.9758 75.0524 70.3924 65.1806 68.6391 55.3107C71.0194 59.086 73.3578 62.0647 81.0666 65.9219C95.5332 73.1562 116.132 73.0266 130.391 65.3921C135.501 62.6555 139.064 59.7759 141.01 56.82C138.86 64.8128 135.859 72.8227 129.879 78.5457C129.259 79.1364 129.682 80.1865 130.538 80.1865C130.776 80.1865 131.013 80.0988 131.197 79.9216C135.201 76.0891 138.373 70.8712 140.62 64.4107C142.548 58.8649 144.704 51.5544 144.704 45.6828C144.704 31.5936 126.991 20.1324 105.218 20.1324H105.216ZM139.804 55.1411C138.195 57.9959 134.63 60.9593 129.492 63.7113C115.599 71.1513 95.6799 71.1018 81.9184 64.2182C71.9647 59.2384 68.3895 54.0624 70.9908 48.3928C75.5151 38.5286 86.6295 34.7971 92.8518 33.4498C100.867 31.7136 109.35 32.1729 117.478 33.85C126.204 35.6528 132.585 38.9536 136.981 43.939C139.495 46.7901 141.713 51.7488 139.804 55.1411Z" fill="black"/>
<path d="M99.375 38.7209C96.8956 38.7209 94.8774 40.7391 94.8774 43.2166C94.8774 45.6941 96.8956 47.7123 99.375 47.7123C101.854 47.7123 103.871 45.6941 103.871 43.2166C103.871 40.7391 101.854 38.7209 99.375 38.7209Z" fill="black"/>
<path d="M102.2 45.484C99.7204 45.484 97.7041 47.5022 97.7041 49.9797C97.7041 52.4572 99.7223 54.4773 102.2 54.4773C104.677 54.4773 106.697 52.4591 106.697 49.9797C106.697 47.5003 104.679 45.484 102.2 45.484Z" fill="black"/>
<path d="M111.41 38.477C108.931 38.477 106.915 40.4952 106.915 42.9726C106.915 45.4501 108.933 47.4683 111.41 47.4683C113.888 47.4683 115.908 45.4501 115.908 42.9726C115.908 40.4952 113.89 38.477 111.41 38.477Z" fill="black"/>
<path d="M113.62 49.355C114.513 49.0425 115.443 48.8538 116.385 48.7928C116.901 48.7547 117.363 49.1568 117.397 49.6809C117.431 50.2069 117.033 50.6604 116.507 50.6948C115.737 50.7443 114.977 50.8987 114.247 51.1559C113.042 51.5752 112.442 49.7686 113.618 49.3569L113.62 49.355Z" fill="black"/>
<path d="M120.821 46.8448C120.123 46.8448 120.072 46.4884 118.408 43.8603C118.126 43.4163 118.26 42.8274 118.705 42.5454C119.151 42.2652 119.738 42.3967 120.02 42.8427L121.627 45.383C122.031 46.0215 121.562 46.8448 120.823 46.8448H120.821Z" fill="black"/>
<path d="M123.742 52.8959C122.94 52.8959 122.492 51.9526 123.013 51.3313C124.017 50.1326 126.369 48.9129 126.74 50.4318C126.864 50.9425 126.551 51.459 126.039 51.5828C124.562 51.943 124.592 52.8959 123.742 52.8959Z" fill="black"/>
<path d="M91.4382 52.6771C91.0514 52.6771 90.6874 52.4389 90.5444 52.0558L89.6945 49.767C89.5115 49.2734 89.7631 48.7246 90.2567 48.5416C90.7484 48.3549 91.2991 48.6102 91.4821 49.1038L92.332 51.3907C92.5626 52.012 92.1034 52.6771 91.4382 52.6771Z" fill="black"/>
<path d="M98.7355 59.162C97.8055 59.162 97.4262 57.9576 98.1904 57.4259C99.4882 56.5226 102.04 56.0499 101.968 57.5974C101.943 58.1234 101.497 58.535 100.971 58.5045C99.7131 58.4359 99.3434 59.162 98.7355 59.162Z" fill="black"/>
<path d="M111.027 59.1413C110.027 59.1413 110.312 58.1293 108.818 57.0716C108.39 56.7667 108.287 56.1721 108.592 55.7433C108.896 55.3126 109.491 55.2116 109.92 55.5165C110.736 56.094 111.41 56.8658 111.871 57.7481C112.205 58.3866 111.734 59.1413 111.027 59.1413Z" fill="black"/>
<path d="M86.0108 45.606C84.9341 45.606 84.6883 44.0871 85.7116 43.7479L88.4026 42.856C88.9019 42.694 89.4412 42.9608 89.607 43.4601C89.7728 43.9594 89.5022 44.4988 89.0029 44.6646C86.5025 45.4936 86.2567 45.6041 86.0128 45.6041L86.0108 45.606Z" fill="black"/>
<path d="M106.648 38.0619C106.526 38.0619 106.532 38.0562 104.563 37.757C103.34 37.5721 103.57 35.7102 104.847 35.8722L106.791 36.1676C107.948 36.3429 107.82 38.0619 106.648 38.0619Z" fill="black"/>
<path d="M94.226 57.0926C93.4237 57.0926 92.9701 56.1454 93.4999 55.5222L95.1599 53.5707C95.501 53.1686 96.1032 53.121 96.5034 53.4621C96.9036 53.8032 96.9532 54.4054 96.612 54.8057C94.8492 56.8753 94.7997 57.0926 94.226 57.0926Z" fill="black"/>
<path d="M115.488 57.4716C114.551 57.4716 114.177 56.2557 114.953 55.7298L116.933 54.39C117.369 54.0946 117.962 54.2109 118.256 54.6454C118.551 55.0818 118.437 55.6745 118 55.968C115.831 57.4354 115.87 57.4716 115.486 57.4716H115.488Z" fill="black"/>
<path d="M90.1883 57.7998C89.5518 57.7998 89.1554 57.0184 87.2173 56.5001C86.7084 56.3648 86.4073 55.8426 86.5426 55.3337C86.6779 54.8249 87.1982 54.5181 87.7089 54.6591C88.7952 54.9488 89.8129 55.4214 90.7353 56.0636C91.4976 56.5973 91.1183 57.7979 90.1883 57.7979V57.7998Z" fill="black"/>
<path d="M84.4139 19.6618C82.8321 17.3196 83.0494 14.0456 85.1476 12.0788C88.5246 8.91336 94.4915 10.4284 99.1969 8.72469C101.131 8.02337 103.248 6.65695 103.834 4.55109C104.081 3.65729 102.806 3.11415 102.338 3.92028C101.676 5.05611 101.07 5.88893 99.9096 6.56928C96.5479 8.54174 92.5134 8.06911 88.982 9.0239C86.6951 9.64327 84.4654 10.8839 83.4553 13.1327C82.4853 15.2919 82.7597 17.9085 84.189 19.7933C84.2881 19.9229 84.5092 19.8028 84.4139 19.6618Z" fill="black"/>
<path d="M108.798 18.1485C108.102 15.8082 109.73 13.5766 111.632 12.3588C115.438 9.91941 120.932 10.918 124.212 6.51383C125.266 5.09785 126.184 2.61656 124.72 1.16818C124.408 0.859452 123.87 1.09005 123.863 1.52266C123.848 2.51174 124.012 3.42841 123.661 4.38891C122.264 8.21376 117.41 8.8884 114.828 9.66023C108.777 11.4688 107.205 15.5643 108.493 18.2762C108.575 18.4496 108.853 18.3276 108.8 18.1466L108.798 18.1485Z" fill="black"/>
<path d="M123.337 20.3243C126.137 21.2333 129.788 19.3047 130.827 13.8275C131.414 10.7345 131.227 7.2584 133.262 4.47981C133.907 3.60126 134.722 3.11911 135.633 2.56834C136.268 2.18529 135.828 1.31245 135.153 1.4287C133.485 1.71837 132.172 3.30968 131.465 4.74662C129.438 8.86496 130.701 13.5893 128.765 17.0387C127.709 18.9178 125.674 20.5491 123.415 20.0555C123.24 20.0174 123.17 20.269 123.341 20.3243H123.337Z" fill="black"/>
<path d="M61.5712 79.3726C56.9574 78.9095 53.3707 75.1799 53.0448 70.5051C51.6479 50.4775 51.6517 30.1888 53.0563 10.1994C53.3936 5.40449 57.1708 1.5682 61.8399 1.27662C88.9855 -0.423314 115.485 -0.425219 140.603 1.269C145.188 1.57964 148.847 5.1434 149.306 9.7458C151.136 28.1268 151.085 48.6708 149.152 70.8062C148.759 75.298 145.205 78.9133 140.698 79.4011C116.087 82.0616 89.4943 82.1835 61.5712 79.3726ZM61.96 3.17857C58.238 3.41107 55.2288 6.48696 54.9582 10.3328C53.5594 30.2308 53.5556 50.4318 54.9468 70.3717C55.2079 74.1165 58.0741 77.1047 61.7637 77.4763C88.9054 80.2092 115.395 80.2187 140.496 77.5068C144.1 77.1161 146.943 74.2289 147.258 70.6404C149.179 48.6213 149.232 28.1973 147.414 9.93447C147.048 6.26208 144.132 3.41869 140.479 3.17285C114.14 1.39668 87.5886 1.57773 61.9638 3.18047L61.96 3.17857Z" fill="black"/>
<path d="M48.1173 239.972C47.6085 239.977 47.1873 239.571 47.1664 239.059C47.0863 237.159 47.0234 235.247 46.9682 233.332C46.9529 232.806 47.3665 232.368 47.8944 232.352C48.4166 232.352 48.8587 232.751 48.8739 233.279C48.9292 235.184 48.9921 237.088 49.0721 238.981C49.0817 239.192 48.9483 239.964 48.1193 239.974L48.1173 239.972ZM47.6828 224.731C47.1683 224.731 46.7433 224.32 46.73 223.801C46.6823 221.896 46.6309 219.992 46.5642 218.095C46.5222 216.876 48.4242 216.712 48.4699 218.031C48.5347 219.933 48.5881 221.842 48.6357 223.756C48.6414 223.982 48.4699 224.731 47.6828 224.731ZM105.387 216.899L99.6356 216.653C98.3359 216.599 98.4979 214.631 99.7157 214.749L105.429 214.995C106.66 215.05 106.62 216.899 105.387 216.899ZM90.1564 216.3C90.1564 216.3 86.3315 216.184 84.4201 216.136C83.8941 216.123 83.4786 215.685 83.492 215.159C83.5053 214.633 83.9398 214.215 84.4677 214.231C86.383 214.278 88.283 214.334 90.185 214.396C91.4237 214.436 91.3951 216.302 90.1545 216.302L90.1564 216.3ZM53.9604 215.955C53.4401 215.955 53.0132 215.536 53.0075 215.012C53.0018 214.486 53.4249 214.055 53.9509 214.05C55.9195 214.029 59.6777 214.002 59.6777 214.002C60.2017 214.002 60.6286 214.425 60.6305 214.949C60.6324 215.475 60.2094 215.904 59.6834 215.908C57.8386 215.917 53.9604 215.955 53.9604 215.955ZM74.9218 215.955C74.9218 215.955 71.1522 215.915 69.2007 215.906C68.6747 215.904 68.2497 215.473 68.2536 214.949C68.2555 214.425 68.6824 214 69.2064 214C69.2064 214 73.0713 214.027 74.9351 214.05C75.4611 214.055 75.8823 214.488 75.8766 215.014C75.8709 215.536 75.4421 215.955 74.9218 215.955Z" fill="black"/>
<path d="M9.57118 321.382C4.95545 320.917 1.37072 317.187 1.04484 312.514C-0.35208 292.487 -0.348269 272.196 1.05627 252.209C1.39359 247.414 5.1708 243.577 9.8399 243.286C36.9893 241.586 63.4888 241.586 88.6028 243.28C93.1881 243.591 96.8471 247.154 97.3064 251.755C99.1359 270.136 99.0845 290.68 97.1521 312.815C96.7595 317.309 93.2033 320.922 88.6981 321.41C64.1368 324.065 37.5477 324.198 9.57118 321.384V321.382ZM9.95996 245.188C6.23802 245.42 3.22883 248.496 2.95822 252.342C1.55939 272.24 1.55558 292.441 2.94678 312.381C3.20787 316.126 6.07413 319.114 9.76367 319.485C36.9073 322.218 63.3954 322.224 88.4961 319.514C92.0999 319.125 94.9433 316.238 95.2577 312.648C97.1787 290.63 97.2321 270.205 95.414 251.942C95.0481 248.269 92.1323 245.426 88.479 245.18C62.1967 243.406 35.64 243.581 9.96377 245.186L9.95996 245.188Z" fill="black"/>
<path d="M74.0581 251.871C66.9191 247.177 57.5752 251.315 57.3599 259.275C58.004 259.683 58.6596 260.129 59.3247 260.609C58.4633 253.213 66.8086 249.388 73.0099 253.466C77.6676 256.529 76.9682 261.08 75.5598 264.358C74.2296 267.454 70.4772 269.431 67.003 268.943C66.9896 269.583 66.8105 270.203 66.5227 270.795C67.0411 270.881 67.5671 270.925 68.1007 270.925C71.9961 270.925 75.8038 268.617 77.3112 265.109C79.6724 259.609 78.4871 254.785 74.0581 251.873V251.871Z" fill="black"/>
<path d="M58.9359 287.465C58.6919 286.192 59.1722 284.804 60.1498 283.955C61.2533 282.996 62.8732 282.87 64.2339 283.398C64.0681 283.005 63.9804 282.58 64.0014 282.146C64.0948 280.187 65.9567 279.045 67.7367 278.914C68.7524 276.168 68.8839 272.848 68.1426 268.893C67.6928 266.496 66.6904 265.398 64.878 263.835C54.1219 254.566 47.3127 251.888 34.0734 259.597C27.045 263.691 23.0067 267.365 20.8436 269.053C18.8026 270.647 15.902 272.911 14.6347 275.234C13.7809 275.889 13.5903 277.01 13.5065 277.502C12.7728 281.832 12.4907 287.191 16.8663 290.223L29.7207 299.134C35.1177 302.947 38.0545 304.007 45.6509 298.52C50.1751 295.252 54.8042 291.905 59.216 288.282C59.0826 288.018 58.9854 287.745 58.934 287.465H58.9359ZM44.5379 288.052C42.1976 289.744 39.6878 291.328 37.1893 291.469C34.4889 291.621 33.2711 290.35 17.9583 279.735C17.3028 279.282 16.6262 278.811 16.1955 278.22C14.7452 276.234 19.6583 272.398 22.0195 270.557C24.4074 268.689 28.2018 265.223 35.0358 261.244C47.4042 254.042 53.3387 256.405 63.6355 265.278C64.7942 266.277 65.7718 267.197 66.0024 268.348C66.3607 270.147 64.7656 271.91 63.3363 273.242C57.5027 278.687 50.9127 283.448 44.5398 288.052H44.5379Z" fill="black"/>
<path d="M58.4306 266.637C57.8055 266.46 58.0227 266.597 57.9599 266.254C57.8703 265.736 57.3805 265.383 56.8583 265.476C56.2923 265.574 55.7282 265.68 55.166 265.795C51.5489 264.945 47.8555 264.352 44.1355 264.018C47.2419 263.125 50.4378 262.522 53.6738 262.237C54.1979 262.191 54.5867 261.728 54.539 261.204C54.4933 260.68 54.0321 260.291 53.5061 260.338C48.5416 260.777 43.6686 261.932 39.049 263.727C35.0184 263.626 30.9839 263.828 27.0104 264.342C26.4901 264.411 26.1204 264.889 26.1871 265.412C26.2557 265.932 26.736 266.286 27.2562 266.235C29.7185 265.915 32.2093 265.718 34.7039 265.644C31.7595 267.102 28.9485 268.832 26.3186 270.812C23.4828 270.99 20.6566 271.342 17.8628 271.874C16.6316 272.108 16.9709 273.974 18.221 273.745C20.0258 273.401 21.8439 273.136 23.6715 272.943C23.2084 273.341 22.7548 273.747 22.3051 274.161C21.9182 274.519 21.8934 275.119 22.2517 275.508C22.61 275.893 23.2103 275.92 23.5991 275.562C24.6949 274.55 25.8364 273.587 27.0142 272.678C30.2349 272.505 33.469 272.568 36.6821 272.863C34.5953 274.085 32.5828 275.43 30.658 276.896C30.2387 277.214 30.1587 277.812 30.477 278.232C30.7971 278.651 31.3936 278.731 31.8129 278.413C34.3685 276.467 37.0861 274.736 39.9238 273.24C43.1312 273.694 46.3062 274.382 49.4125 275.302C49.9138 275.451 50.4474 275.167 50.5979 274.66C50.7466 274.155 50.4588 273.625 49.9538 273.475C47.6268 272.785 45.2637 272.225 42.8777 271.788C46.7998 269.995 50.9181 268.634 55.1412 267.748C56.0712 267.973 56.9955 268.213 57.9141 268.472C58.4268 268.615 58.947 268.316 59.09 267.813C59.2329 267.306 58.9375 266.78 58.4306 266.637ZM39.5807 271.27C36.3372 270.841 33.0612 270.643 29.789 270.681C32.8001 268.667 36.0208 266.978 39.3845 265.642C43.2265 265.758 47.0647 266.159 50.838 266.841C46.9484 267.937 43.1731 269.423 39.5807 271.27Z" fill="black"/>
<path d="M43.8859 314.372C39.3083 314.372 35.0489 313.789 33.107 311.31C30.8239 308.396 33.3719 304.497 36.888 303.713C46.3863 301.598 58.7737 303.548 67.4182 297.087C74.2179 292.004 76.743 281.647 72.7733 274.14C72.2588 273.166 73.4937 272.251 74.2675 272.993C79.6722 278.167 81.9095 286.396 79.9676 293.956C76.1237 308.918 59.5131 314.372 43.8859 314.372ZM76.2113 278.599C77.4596 285.963 74.5609 294.128 68.5578 298.614C59.2711 305.553 46.8379 303.449 37.3015 305.573C35.2281 306.035 33.2137 308.356 34.6068 310.136C36.8041 312.941 44.6444 312.524 48.4121 312.322C60.6013 311.672 74.8068 306.382 78.1209 293.481C79.4282 288.393 78.6698 282.979 76.2113 278.599Z" fill="black"/>
<path d="M84.902 283.196C81.1191 283.196 79.3658 278.908 81.1439 276.13C84.4542 270.957 91.8047 276.231 88.8317 281.094C88.0332 282.399 86.5009 283.196 84.902 283.196ZM82.7504 277.157C81.6451 278.883 82.9315 281.812 85.55 281.218C87.9798 280.677 88.3114 277.679 86.1522 276.33C85.1593 275.71 83.7471 275.6 82.7504 277.157Z" fill="black"/>
<path d="M71.8188 280.351C70.6524 276.412 63.2676 277.542 63.0485 282.098V282.154C59.721 281.879 57.4322 284.696 58.0001 287.642C58.6538 291.057 63.8946 293.457 66.616 290.508C67.6547 289.384 68.0091 287.877 67.769 286.449C70.3628 286.135 72.6001 282.992 71.8168 280.349L71.8188 280.351ZM65.2191 289.216C63.6259 290.941 60.2489 289.249 59.8716 287.284C59.5857 285.786 60.6129 284.04 62.6025 284.04C65.5869 284.04 66.8886 287.41 65.2191 289.216ZM67.8872 284.488C67.6166 284.578 67.3326 284.593 67.0525 284.551C66.5741 283.779 65.8823 283.122 65 282.687C64.9618 282.523 64.9447 282.358 64.9523 282.19C65.0247 280.707 66.6408 279.851 68.0739 279.851C71.3785 279.851 70.0712 283.772 67.8872 284.488Z" fill="black"/>
<path d="M40.6675 310.046C40.1473 309.962 39.7947 309.474 39.8785 308.954C39.9624 308.434 40.4484 308.076 40.9705 308.163C43.4118 308.554 51.4979 308.276 56.6015 306.848C57.1104 306.709 57.6345 307.003 57.7755 307.51C57.9165 308.017 57.6211 308.543 57.1142 308.684C52.0125 310.111 43.6329 310.523 40.6675 310.046Z" fill="black"/>
</svg>
