<svg width="380" height="376" viewBox="0 0 380 376" fill="none" xmlns="http://www.w3.org/2000/svg">
<circle cx="96.5" cy="103.5" r="21.5" fill="#FFB949"/>
<circle cx="270.5" cy="114.5" r="19.5" fill="#FFB949"/>
<circle cx="234.5" cy="42.5" r="34.5" fill="#FFB949"/>
<path fill-rule="evenodd" clip-rule="evenodd" d="M112.799 115.886C117.059 108.586 118.799 102.606 110.379 103.886C106.846 104.566 103.421 105.723 100.199 107.326C96.9619 105.486 93.6233 103.83 90.1993 102.366C88.8593 101.806 85.9593 100.606 84.7993 101.466C82.1593 103.466 86.4993 112.426 87.9393 115.346C85.7359 117.124 83.8317 119.245 82.2993 121.626C79.2193 126.406 79.5193 129.326 85.2393 129.006C88.6919 128.648 92.0932 127.904 95.3793 126.786C95.6993 128.546 95.9393 131.546 96.4593 134.246C94.3593 134.746 93.7593 136.246 94.4593 138.366C94.8009 139.445 95.3215 140.459 95.9993 141.366C96.3366 141.717 96.6974 142.044 97.0793 142.346C97.5393 149.126 97.5993 148.346 97.3193 148.346C97.2033 148.33 97.085 148.342 96.9748 148.382C96.8646 148.422 96.7658 148.488 96.687 148.575C96.6081 148.661 96.5517 148.766 96.5224 148.879C96.4932 148.993 96.4922 149.112 96.5193 149.226C96.7957 154.432 96.7222 159.65 96.2993 164.846C95.9193 168.086 95.5993 167.966 94.7993 168.186C90.4993 169.346 75.6793 169.006 70.5993 170.766C69.4708 169.382 68.416 167.94 67.4393 166.446C67.5993 166.246 67.8793 165.966 68.1793 165.586C69.4005 163.957 70.229 162.068 70.6002 160.066C70.9714 158.065 70.8753 156.004 70.3193 154.046C70.9658 153.376 71.3897 152.522 71.5329 151.602C71.676 150.682 71.5316 149.741 71.1193 148.906C71.0929 148.107 70.9165 147.32 70.5993 146.586C70.8368 146.359 70.9987 146.065 71.0631 145.743C71.1275 145.421 71.0913 145.087 70.9593 144.786C70.6527 144.178 70.2237 143.64 69.6993 143.206C69.6993 142.086 69.8393 141.506 68.5793 140.866C68.6289 140.655 68.6624 140.441 68.6793 140.226C68.5425 139.541 68.2202 138.906 67.7477 138.391C67.2751 137.876 66.6704 137.501 65.9993 137.306C65.2793 137.186 65.4593 137.486 65.2593 136.926C65.1718 136.541 64.9987 136.182 64.7528 135.874C64.5069 135.565 64.1947 135.317 63.8393 135.146C63.0787 134.784 62.2158 134.7 61.3993 134.906C60.1993 133.606 58.1393 134.246 56.7793 135.426C56.2485 135.264 55.6881 135.223 55.1393 135.306C54.5247 135.543 54.0192 135.999 53.7193 136.586C53.4864 136.37 53.2053 136.212 52.8993 136.126C52.4484 136.025 51.9817 136.018 51.5278 136.104C51.0739 136.19 50.6423 136.368 50.2593 136.626C49.7899 136.368 49.2473 136.277 48.7193 136.366C47.9193 136.626 47.6993 137.326 47.3993 137.886C46.4947 138.276 45.6628 138.817 44.9393 139.486C43.2393 141.186 43.4593 143.126 44.2393 143.666C43.4337 144.359 42.809 145.237 42.4193 146.226C42.1153 147.149 42.158 148.152 42.5393 149.046C42.6765 149.269 42.8449 149.471 43.0393 149.646C42.5809 150.092 42.2321 150.639 42.0205 151.243C41.8088 151.846 41.7399 152.491 41.8193 153.126C41.8674 153.478 41.9905 153.815 42.1803 154.115C42.37 154.416 42.6221 154.672 42.9193 154.866C42.596 155.445 42.4989 156.123 42.6466 156.77C42.7944 157.416 43.1766 157.985 43.7193 158.366C44.0857 158.546 44.4671 158.693 44.8593 158.806C44.8561 159.322 44.8962 159.837 44.9793 160.346C45.1869 160.822 45.5196 161.234 45.9421 161.537C46.3647 161.84 46.8613 162.022 47.3793 162.066C47.2793 162.666 47.6593 162.926 48.1593 163.166C48.0259 163.213 47.9081 163.296 47.8193 163.406C47.5741 163.084 47.2297 162.852 46.8393 162.746C46.1261 162.65 45.4005 162.775 44.7604 163.104C44.1203 163.433 43.5964 163.95 43.2593 164.586C43.1749 164.722 43.1189 164.873 43.0948 165.031C43.0707 165.19 43.0791 165.351 43.1193 165.506C42.9089 165.665 42.7378 165.87 42.6193 166.106C42.4218 166.536 42.3195 167.003 42.3195 167.476C42.3195 167.949 42.4218 168.416 42.6193 168.846C42.7615 169.104 42.9589 169.327 43.1975 169.5C43.436 169.673 43.7099 169.791 43.9993 169.846C43.911 170.537 44.0361 171.239 44.3578 171.858C44.6795 172.476 45.1824 172.981 45.7993 173.306C46.2963 173.446 46.8224 173.446 47.3193 173.306C47.4608 173.634 47.68 173.923 47.958 174.147C48.236 174.371 48.5645 174.524 48.915 174.593C49.2655 174.662 49.6275 174.645 49.9698 174.542C50.312 174.44 50.6242 174.256 50.8793 174.006C51.159 174.167 51.4763 174.252 51.7993 174.252C52.1223 174.252 52.4396 174.167 52.7193 174.006C53.1044 173.65 53.3816 173.192 53.5193 172.686C53.7793 172.686 53.6993 172.366 52.8393 175.486C52.7636 175.755 52.7035 176.029 52.6593 176.306C51.0614 176.831 49.5309 177.543 48.0993 178.426C43.0351 181.284 38.6107 185.15 35.0993 189.786C26.5793 199.986 13.9393 234.826 10.9393 238.606C10.5193 239.146 11.0793 239.826 11.5193 240.346C11.1193 240.706 10.1393 241.546 9.27934 242.346C6.40834 243.232 3.60171 244.314 0.879334 245.586C-0.980666 246.766 0.359334 249.146 2.57933 248.926C2.40658 249.23 2.32747 249.579 2.3519 249.928C2.37634 250.278 2.50322 250.612 2.71669 250.889C2.93016 251.167 3.22073 251.375 3.55204 251.489C3.88335 251.602 4.24068 251.615 4.57933 251.526C4.43604 251.817 4.3871 252.146 4.43933 252.466C4.479 252.685 4.5635 252.894 4.68753 253.079C4.81157 253.264 4.97248 253.422 5.1602 253.542C5.34792 253.662 5.55841 253.742 5.77851 253.777C5.9986 253.812 6.22357 253.802 6.43933 253.746C8.36953 252.798 10.064 251.431 11.3993 249.746C12.2193 250.306 12.9793 251.426 13.8593 251.906C15.2193 252.646 16.4393 251.706 15.8593 249.906C15.5699 249.069 15.1804 248.27 14.6993 247.526L17.3193 246.006C18.0393 246.526 18.3993 246.806 19.2193 246.466C21.3993 245.506 27.2193 239.406 29.3193 237.386C36.1593 230.586 43.9793 215.986 48.2393 207.386C47.4193 214.106 45.8593 219.106 45.7593 226.086C45.7593 226.966 46.5793 227.386 47.4193 227.606C46.5062 229.34 45.8334 231.19 45.4193 233.106C39.0393 249.426 36.3193 273.106 34.5193 289.346C31.7393 314.646 29.6193 343.166 29.4393 348.086C29.4393 349.386 29.4393 349.526 32.9993 350.086C32.8593 351.346 31.4793 363.006 32.2193 364.086C32.3171 364.222 32.4582 364.32 32.6193 364.366C33.8012 364.624 34.9963 364.818 36.1993 364.946C37.5793 365.066 37.5593 364.946 38.8793 362.706C43.4175 364.034 48.0329 365.082 52.6993 365.846C52.8649 365.859 53.0314 365.839 53.1893 365.788C53.3472 365.736 53.4933 365.654 53.6193 365.546C56.4393 362.726 49.0793 359.006 45.4593 357.386C45.4593 354.606 45.7593 353.126 45.8993 351.246C46.7717 351.303 47.6469 351.303 48.5193 351.246C48.7574 351.255 48.9946 351.213 49.2153 351.124C49.4359 351.034 49.635 350.898 49.7993 350.726C50.1193 350.226 52.1193 344.386 54.5593 337.046C64.8393 305.886 61.2593 319.046 73.6993 264.346C75.0593 258.346 76.0393 253.806 76.1993 251.986C76.1872 251.939 76.1861 251.889 76.196 251.841C76.2059 251.794 76.2266 251.749 76.2566 251.71C76.2865 251.672 76.3248 251.641 76.3686 251.619C76.4124 251.598 76.4606 251.586 76.5093 251.586C76.5581 251.586 76.6063 251.598 76.6501 251.619C76.6939 251.641 76.7322 251.672 76.7621 251.71C76.792 251.749 76.8127 251.794 76.8227 251.841C76.8326 251.889 76.8314 251.939 76.8193 251.986C76.5793 261.586 65.7193 305.726 63.3993 314.966V347.946C63.4236 348.158 63.5242 348.354 63.6824 348.498C63.8407 348.641 64.0457 348.722 64.2593 348.726L68.9593 348.566C68.7419 353.265 68.7819 357.972 69.0793 362.666C69.0793 363.306 69.2593 363.946 69.8993 364.046C71.4529 364.246 73.0258 364.246 74.5793 364.046C75.3993 363.706 75.2593 362.506 75.3593 361.746C78.6993 362.466 85.7193 364.106 89.1593 363.646C90.2393 363.506 91.3393 363.046 91.5193 361.966C91.9793 359.206 84.4593 356.566 81.7993 355.686C81.9193 353.546 82.0793 350.106 82.1593 347.926C82.7575 347.899 83.3527 347.825 83.9393 347.706C84.0835 347.688 84.221 347.635 84.3397 347.551C84.4583 347.468 84.5544 347.356 84.6193 347.226C85.9193 344.666 99.5193 250.286 90.1393 226.126C91.0593 225.226 91.0793 224.346 91.1193 222.546C91.2238 222.417 91.2989 222.267 91.3393 222.106C91.7393 220.486 92.2393 192.666 92.3393 190.606C93.4393 189.786 102.479 187.106 107.179 183.286C115.179 176.706 111.559 158.506 107.999 148.706C107.951 148.56 107.857 148.434 107.73 148.348C107.604 148.261 107.452 148.218 107.299 148.226H106.919C106.239 143.386 106.259 146.226 107.459 142.226C107.673 142.109 107.862 141.951 108.014 141.76C108.167 141.57 108.28 141.351 108.347 141.116C108.414 140.882 108.433 140.637 108.405 140.394C108.376 140.152 108.299 139.918 108.179 139.706C110.339 139.386 110.459 136.046 106.179 134.586C105.399 134.326 105.959 135.266 109.019 127.806C112.599 127.806 121.259 127.806 124.339 125.926C125.559 125.186 126.099 124.046 125.199 122.826C123.579 120.046 115.659 116.966 112.799 115.886ZM96.5193 168.626C98.3393 166.306 97.9993 152.626 97.8793 149.686H100.559C100.559 157.686 101.119 166.386 100.219 169.046C98.9593 170.606 88.7393 175.046 86.4193 176.486C86.2993 176.086 86.1993 175.726 86.0993 175.346C86.0736 175.276 86.0246 175.218 85.9605 175.18C85.8965 175.143 85.8214 175.129 85.7482 175.141C85.675 175.153 85.6081 175.189 85.5591 175.245C85.51 175.301 85.4819 175.372 85.4793 175.446C85.5742 177.168 85.8695 178.872 86.3593 180.526C85.5593 188.406 86.7793 204.526 87.4193 213.026C86.3161 213.027 85.2428 213.385 84.3593 214.046C82.3593 188.046 80.3593 173.146 80.9593 170.606C87.0793 170.166 95.3593 170.046 96.5193 168.626ZM104.679 149.466C104.859 151.466 105.879 170.406 104.239 171.966C102.856 173.136 101.347 174.149 99.7393 174.986C95.9355 177.145 92.0163 179.095 87.9993 180.826C87.4593 179.486 86.9793 178.166 86.5793 176.946C86.7793 176.946 100.779 171.966 101.639 169.466C103.119 165.106 101.279 150.666 101.179 149.566L104.679 149.466ZM90.9193 189.906C90.9193 190.526 90.5393 205.806 90.2993 214.106C89.9277 213.559 89.3634 213.174 88.7193 213.026C88.4593 207.506 87.1193 184.126 87.0593 182.606C87.9698 185.22 89.2713 187.681 90.9193 189.906ZM53.8793 197.706C53.12 194.629 51.9495 191.67 50.3993 188.906C48.6803 186.148 46.3717 183.805 43.6393 182.046C44.8928 181.027 46.231 180.117 47.6393 179.326C49.9612 181.744 51.9397 184.469 53.5193 187.426C57.4774 194.9 59.7314 203.157 60.1193 211.606C60.5269 216.06 60.6738 220.534 60.5593 225.006L53.2993 225.906C54.7193 217.226 56.1993 206.626 53.8793 197.706ZM64.8593 195.426C64.3393 193.726 64.0993 193.946 66.1993 196.586C67.1993 197.866 69.2593 200.406 70.8793 200.586C70.9793 201.246 73.9593 220.746 74.3193 223.306C74.1193 223.306 74.4393 223.306 68.1993 224.086C69.2993 215.666 67.1193 203.006 64.8593 195.426ZM79.1393 219.546C78.3559 220.622 77.6475 221.752 77.0193 222.926C73.0193 222.286 76.4993 226.566 74.1593 211.326C73.6461 207.625 72.8028 203.977 71.6393 200.426C71.977 200.21 72.2201 199.874 72.3193 199.486C73.3793 195.826 71.3593 175.486 70.9393 171.746C72.2851 171.357 73.6645 171.096 75.0593 170.966C73.7793 181.266 77.6593 209.226 79.1393 219.546ZM78.5993 228.926C77.9097 229.527 77.0144 229.837 76.101 229.792C75.1876 229.748 74.3269 229.351 73.6993 228.686C73.3774 228.062 73.2516 227.356 73.3383 226.659C73.425 225.963 73.7203 225.309 74.1853 224.784C74.6504 224.258 75.2634 223.885 75.9441 223.714C76.6247 223.543 77.3412 223.582 77.9993 223.826C79.0993 224.246 79.7793 227.766 78.5993 228.926ZM48.5993 227.086C56.5454 227.015 64.4773 226.401 72.3393 225.246C71.9731 225.986 71.8185 226.813 71.8927 227.635C71.9668 228.457 72.2667 229.243 72.7593 229.906C66.3593 230.766 49.9393 232.126 46.6193 232.266C47.0897 230.484 47.7258 228.749 48.5193 227.086H48.5993ZM67.2593 239.266C75.1393 230.326 73.4793 231.266 74.8593 231.266C75.7773 231.506 76.7414 231.506 77.6593 231.266C76.3128 234.976 74.4038 238.456 71.9993 241.586C70.6593 243.406 68.1193 246.486 65.9993 247.146C65.2393 246.726 63.1193 245.486 61.9993 244.746C63.1593 243.706 65.0993 241.606 67.1793 239.266H67.2593ZM77.8993 223.126C79.0593 221.346 84.2193 215.126 86.3793 214.626C86.817 214.463 87.2879 214.408 87.7513 214.467C88.2147 214.527 88.6568 214.698 89.0393 214.966C89.0746 215.345 89.0268 215.727 88.8993 216.086C87.5217 217.922 85.8689 219.534 83.9993 220.866C82.4983 222.018 80.9781 223.145 79.4393 224.246C79.2601 223.958 79.0239 223.711 78.7453 223.518C78.4667 223.326 78.1515 223.192 77.8193 223.126H77.8993ZM89.6593 218.426C89.8398 220.308 89.8398 222.204 89.6593 224.086C89.3193 225.826 82.2993 227.806 80.5593 228.206C80.6792 227.129 80.492 226.041 80.0193 225.066C82.5048 223.679 84.8786 222.101 87.1193 220.346C89.9993 217.826 89.4993 217.026 89.5793 218.426H89.6593ZM80.2993 170.546C78.7593 176.986 82.2993 207.506 83.3193 214.786C82.1105 215.902 80.9998 217.12 79.9993 218.426C79.0993 206.706 75.3393 177.026 75.7593 170.906C77.1793 170.746 78.8393 170.646 80.2993 170.546ZM69.4993 148.746C69.7586 149.384 69.9139 150.059 69.9593 150.746C70.1593 152.746 69.2993 153.486 67.8393 153.446C67.4697 153.462 67.1022 153.382 66.7727 153.214C66.4432 153.046 66.163 152.795 65.9593 152.486C65.4199 151.607 64.9709 150.675 64.6193 149.706C66.1516 149.018 67.8208 148.69 69.4993 148.746ZM55.2793 149.146C56.1793 149.146 56.7793 149.146 57.2793 147.546C57.4679 146.959 57.5293 146.338 57.4593 145.726C58.3193 145.726 58.6193 145.206 58.9993 144.526C60.1193 145.346 60.6193 146.706 62.6393 145.926C62.7498 146.254 62.9267 146.555 63.1588 146.812C63.391 147.068 63.6734 147.274 63.9886 147.417C64.3038 147.559 64.645 147.636 64.991 147.641C65.3369 147.646 65.6801 147.579 65.9993 147.446C66.5593 147.286 66.3193 147.266 66.6993 147.826C65.9993 148.046 63.9993 148.846 63.9993 149.486C63.9619 149.863 64.0028 150.245 64.1193 150.606C63.2053 150.492 62.2798 150.697 61.4993 151.186C61.2593 150.466 60.7793 149.726 60.0393 149.686C58.2759 149.773 56.5391 150.151 54.8993 150.806C55.2132 150.313 55.3475 149.726 55.2793 149.146ZM52.9593 152.566C55.1655 151.693 57.5075 151.212 59.8793 151.146C60.2186 152.073 60.3417 153.064 60.2393 154.046C59.9993 155.186 59.6193 156.046 58.4993 156.306C57.7654 156.582 56.9666 156.636 56.2021 156.462C55.4376 156.288 54.7411 155.893 54.1993 155.326C53.6184 154.491 53.1979 153.555 52.9593 152.566ZM53.6193 162.866C53.8993 162.006 53.6193 161.546 52.3593 161.146C49.4393 160.246 49.6193 157.966 50.5993 157.446C51.9793 156.726 51.1593 156.186 50.8793 156.046C51.9793 155.506 52.3593 155.186 52.5393 154.046C52.7065 154.751 52.9832 155.426 53.3593 156.046C53.9692 156.892 54.8359 157.518 55.8306 157.832C56.8253 158.145 57.8946 158.129 58.8793 157.786C61.2393 157.186 62.0393 154.886 61.7593 152.426C63.1593 152.426 62.1793 151.846 62.9593 154.166C63.2655 155.069 63.6468 155.946 64.0993 156.786C63.6593 157.066 63.2793 157.106 63.3793 157.466C63.4105 157.542 63.4683 157.604 63.5418 157.641C63.6154 157.678 63.6997 157.687 63.7793 157.666C65.2593 157.666 65.9993 157.486 64.7793 154.566C64.4406 153.679 63.9685 152.85 63.3793 152.106C63.7478 151.99 64.1031 151.836 64.4393 151.646C64.8793 152.986 65.1193 153.846 66.4393 154.486C66.9222 154.696 67.4429 154.804 67.9693 154.804C68.4957 154.804 69.0165 154.696 69.4993 154.486C69.9528 156.362 69.9382 158.321 69.4569 160.19C68.9757 162.06 68.0424 163.782 66.7393 165.206C65.7593 166.266 65.4393 166.106 69.4993 171.446C69.4993 171.446 71.6993 193.446 70.9993 198.366C70.9993 198.466 70.8793 198.466 70.7393 198.366C68.8038 196.637 67.0665 194.699 65.5593 192.586C60.6193 186.166 56.4993 178.586 54.2393 176.026C54.4193 175.246 55.2793 172.426 55.6193 171.206C55.8769 171.196 56.1281 171.124 56.3512 170.995C56.5743 170.866 56.7625 170.684 56.8993 170.466C57.3159 169.882 57.5397 169.183 57.5393 168.466C57.3603 167.852 56.9709 167.321 56.4393 166.966C57.4993 166.126 55.8993 163.626 54.5593 163.866C54.3393 163.866 54.5593 163.986 54.4193 163.626C54.3892 163.428 54.2943 163.246 54.1495 163.109C54.0046 162.971 53.8181 162.886 53.6193 162.866ZM52.7593 176.866C52.7885 176.915 52.8298 176.957 52.8793 176.986C54.2993 178.426 58.2393 184.986 62.1393 190.986C65.3321 201.731 67.1334 212.842 67.4993 224.046L61.2593 224.806C62.9593 208.206 60.5393 190.306 48.2393 178.806C49.6683 177.976 51.1841 177.305 52.7593 176.806V176.866ZM13.9993 246.746C13.9376 246.779 13.8835 246.824 13.8404 246.879C13.7973 246.934 13.7663 246.998 13.7494 247.066C13.7324 247.134 13.7299 247.204 13.7419 247.273C13.754 247.342 13.7803 247.408 13.8193 247.466C14.416 248.353 14.8432 249.343 15.0793 250.386V250.706C15.0793 250.786 13.0793 248.886 12.7993 248.706C12.1193 248.246 11.3593 247.806 10.7993 248.386C9.71933 249.426 7.55933 251.786 6.19933 252.026C4.83933 252.266 6.41933 251.606 6.63933 251.346C7.27933 250.526 8.27934 249.566 8.77934 249.046C8.92149 248.907 9.05507 248.761 9.17933 248.606C9.26288 248.487 9.3125 248.348 9.32286 248.203C9.33323 248.058 9.30395 247.913 9.23817 247.783C9.17238 247.654 9.07258 247.545 8.94946 247.468C8.82635 247.391 8.68457 247.348 8.53934 247.346C8.24563 247.372 7.9701 247.5 7.75933 247.706C6.77308 248.591 5.65242 249.313 4.43933 249.846C3.75933 249.966 3.73933 249.066 6.57933 247.446C6.75064 247.361 6.91752 247.268 7.07933 247.166C7.17635 247.106 7.25855 247.024 7.31985 246.928C7.38115 246.832 7.41997 246.723 7.43342 246.61C7.44687 246.496 7.43461 246.381 7.39755 246.273C7.36048 246.165 7.29957 246.067 7.21933 245.986C6.17933 244.966 3.21933 247.866 1.89933 247.186C0.579333 246.506 3.71933 245.806 5.15933 244.886C6.67243 244.129 8.22841 243.461 9.81933 242.886C10.6021 242.261 11.3499 241.593 12.0593 240.886C12.1993 240.766 12.0593 240.746 12.2993 240.886C13.7569 242.458 15.3205 243.928 16.9793 245.286L13.9993 246.746ZM48.1993 197.526C45.7045 200.156 43.5355 203.077 41.7393 206.226C41.0193 207.406 25.5393 234.226 24.2993 236.226C22.443 239.207 20.3354 242.024 17.9993 244.646C17.4156 244.216 16.8548 243.755 16.3193 243.266C28.0193 226.186 40.1393 197.266 46.3193 192.246C47.0898 193.943 47.6927 195.711 48.1193 197.526H48.1993ZM37.8393 223.666C33.7968 230.583 28.6487 236.792 22.5993 242.046C21.4582 243.209 20.1747 244.224 18.7793 245.066L18.6193 244.966C29.7793 234.046 43.1993 203.846 48.2793 198.306C48.5393 199.746 48.7393 201.186 48.9193 202.706C45.5557 209.877 41.8309 216.872 37.7593 223.666H37.8393ZM50.3393 203.826C50.728 198.619 49.1109 193.46 45.8193 189.406C45.7931 189.376 45.7607 189.352 45.7245 189.336C45.6883 189.32 45.6491 189.311 45.6093 189.311C45.5696 189.311 45.5303 189.32 45.4941 189.336C45.4579 189.352 45.4256 189.376 45.3993 189.406C45.0593 189.626 45.3993 189.726 46.2593 191.766C40.4393 193.766 21.8593 233.486 15.9993 242.926C15.3735 242.366 14.7665 241.786 14.1793 241.186C17.0593 237.186 33.7393 202.306 36.1793 197.906C37.5193 195.446 40.6793 189.766 43.0193 188.226C43.3593 188.026 43.0193 187.486 42.6793 187.706C34.4193 192.486 19.1193 230.046 13.6393 240.646C12.7193 239.686 12.8593 239.786 12.1193 238.986C15.5393 233.866 27.6593 200.046 35.7393 190.186C37.9607 187.382 40.438 184.791 43.1393 182.446C46.3969 184.818 48.8977 188.083 50.3393 191.846C53.7193 199.846 53.7993 206.426 53.3993 215.606C53.1793 221.146 52.7193 225.226 52.6593 225.966C50.9397 226.395 49.1321 226.312 47.4593 225.726C47.5993 217.886 49.6993 212.166 50.2593 203.826H50.3393ZM44.5193 356.146C40.9062 356.549 37.2515 356.36 33.6993 355.586C33.6993 354.066 33.8593 351.586 33.9593 349.946C37.2393 350.366 41.9593 350.786 45.3193 350.906L44.5193 356.146ZM80.8593 354.666C78.6593 355.206 72.0193 356.126 70.1993 354.966C70.0993 352.966 69.9593 350.186 69.8793 348.226C73.6993 348.086 78.5993 347.886 81.5593 347.666C81.2793 349.786 80.9593 353.006 80.7793 354.666H80.8593ZM106.299 181.766C101.919 185.326 93.1193 187.966 91.6993 188.926C91.2593 188.046 90.7793 187.046 90.2793 185.986C94.1932 185.068 97.9573 183.6 101.459 181.626C106.799 178.666 109.639 176.446 110.599 169.766C110.539 174.626 109.499 179.166 106.299 181.766ZM109.999 162.486C108.999 174.486 107.639 176.246 100.659 180.326C97.2662 182.337 93.6984 184.037 89.9993 185.406C89.4193 184.126 88.8193 182.786 88.2793 181.406C92.2793 180.126 102.039 176.086 105.299 173.026C108.039 170.426 106.019 153.426 105.299 149.386H106.879C108.297 153.654 109.341 158.037 109.999 162.486ZM98.3393 148.246V143.166C98.6593 143.006 98.3393 142.666 98.3393 142.566C97.8078 142 97.3071 141.406 96.8393 140.786C96.097 139.443 95.7503 137.918 95.8393 136.386C96.2593 135.386 99.0193 135.546 100.199 135.866C100.339 135.933 100.457 136.037 100.54 136.168C100.622 136.299 100.666 136.451 100.666 136.606C100.666 136.761 100.622 136.912 100.54 137.043C100.457 137.174 100.339 137.279 100.199 137.346C98.9793 138.066 98.0993 138.286 98.6393 139.146C98.8993 139.586 99.7393 140.686 99.8393 140.986C99.8621 141.047 99.903 141.1 99.9566 141.137C100.01 141.175 100.074 141.195 100.139 141.195C100.205 141.195 100.268 141.175 100.322 141.137C100.376 141.1 100.417 141.047 100.439 140.986C100.409 140.821 100.362 140.661 100.299 140.506C100.77 140.491 101.227 140.345 101.619 140.086C102.163 140.722 102.833 141.237 103.587 141.599C104.342 141.961 105.163 142.16 105.999 142.186C105.059 145.666 104.959 143.426 105.999 147.946L98.3393 148.246ZM107.759 140.806C107.419 141.546 106.099 141.046 105.339 140.806C101.479 139.226 102.659 138.146 105.739 139.106C106.659 139.326 107.999 139.866 107.759 140.806ZM107.179 136.226C108.059 136.626 109.299 137.346 108.959 138.226C108.619 139.106 107.279 138.226 106.579 137.846C102.959 135.786 104.239 134.846 107.179 136.226ZM124.359 123.766C124.359 124.126 123.699 124.466 123.379 124.626C120.319 126.066 112.099 126.306 108.779 126.226C107.779 126.226 108.279 127.566 104.779 134.026C104.51 133.994 104.237 134.031 103.985 134.132C103.734 134.233 103.512 134.396 103.339 134.606C103.074 134.928 102.906 135.319 102.853 135.733C102.8 136.147 102.864 136.567 103.039 136.946L102.859 137.206C102.461 137.262 102.096 137.458 101.829 137.759C101.562 138.059 101.41 138.444 101.399 138.846C100.879 139.286 100.359 139.586 99.7593 139.326L99.5793 138.946C99.9593 138.786 100.519 138.586 100.899 138.406C101.277 138.201 101.585 137.889 101.786 137.51C101.987 137.13 102.071 136.7 102.029 136.273C101.986 135.846 101.818 135.441 101.546 135.108C101.274 134.776 100.91 134.532 100.499 134.406C99.459 134.117 98.3741 134.022 97.2993 134.126C96.0793 128.586 96.3193 125.826 95.5393 126.126C92.7993 127.026 82.7793 129.666 81.5393 127.146C80.9593 126.006 82.5793 123.346 83.2993 122.286C84.8639 119.859 86.8643 117.744 89.1993 116.046C89.3348 115.959 89.434 115.826 89.4782 115.671C89.5224 115.517 89.5086 115.351 89.4393 115.206C88.1793 112.686 85.4393 106.446 85.4393 103.586C85.4393 103.146 85.4393 102.786 85.6993 102.606C87.6009 102.861 89.4425 103.45 91.1393 104.346C99.2793 108.046 99.6793 109.326 100.559 108.826C104.27 106.816 108.355 105.591 112.559 105.226C114.559 105.226 114.739 105.986 114.699 106.926C114.014 110.105 112.732 113.125 110.919 115.826C110.859 115.925 110.821 116.035 110.809 116.15C110.797 116.265 110.811 116.382 110.849 116.491C110.887 116.6 110.949 116.699 111.031 116.781C111.112 116.863 111.211 116.926 111.319 116.966C114.259 118.026 121.159 120.786 123.559 122.846C123.799 123.026 124.379 123.566 124.359 123.766Z" fill="black"/>
<path fill-rule="evenodd" clip-rule="evenodd" d="M57.2392 154.046C57.317 154.209 57.4501 154.338 57.6146 154.412C57.7792 154.485 57.9646 154.498 58.1376 154.448C58.3107 154.397 58.4601 154.287 58.5594 154.136C58.6586 153.986 58.7011 153.805 58.6792 153.626C58.6209 153.415 58.5742 153.202 58.5392 152.986C58.5021 152.792 58.3896 152.621 58.2264 152.511C58.0633 152.4 57.8628 152.359 57.6692 152.396C57.4756 152.433 57.3047 152.546 57.194 152.709C57.0834 152.872 57.0421 153.072 57.0792 153.266C57.1192 153.546 57.1792 153.786 57.2392 154.046ZM66.4592 151.546C66.5415 151.715 66.6837 151.848 66.8583 151.918C67.0328 151.989 67.2274 151.992 67.4041 151.927C67.5809 151.863 67.7274 151.735 67.8152 151.568C67.9029 151.402 67.9258 151.208 67.8792 151.026C67.788 150.81 67.7079 150.59 67.6392 150.366C67.5614 150.203 67.4284 150.074 67.2638 150C67.0992 149.926 66.9139 149.914 66.7408 149.964C66.5678 150.015 66.4183 150.125 66.3191 150.276C66.2199 150.426 66.1774 150.607 66.1992 150.786L66.4592 151.546ZM62.1792 161.426C62.3871 161.703 62.6485 161.934 62.9478 162.108C63.2472 162.282 63.5784 162.393 63.9217 162.436C64.2651 162.479 64.6135 162.452 64.9464 162.358C65.2792 162.263 65.5897 162.103 65.8592 161.886C65.896 161.869 65.929 161.845 65.9565 161.815C65.9839 161.785 66.0052 161.75 66.0191 161.712C66.0331 161.674 66.0394 161.633 66.0377 161.593C66.036 161.552 66.0263 161.513 66.0092 161.476C65.9922 161.439 65.968 161.406 65.9382 161.379C65.9083 161.351 65.8734 161.33 65.8353 161.316C65.7972 161.302 65.7568 161.296 65.7163 161.297C65.6758 161.299 65.636 161.309 65.5992 161.326C65.1642 161.401 64.7168 161.351 64.3094 161.181C63.902 161.011 63.5515 160.728 63.2992 160.366C64.0955 160.154 64.8718 159.873 65.6192 159.526C66.5592 159.146 66.1592 158.786 65.6192 158.766C64.395 158.656 63.1614 158.806 61.9992 159.206C61.0192 159.646 61.5392 160.726 62.1792 161.426ZM259.199 91.5659C259.142 91.2123 258.957 90.892 258.679 90.6659C259.479 90.1659 260.339 89.4659 260.039 88.5659C259.933 88.2396 259.735 87.9509 259.469 87.7345C259.203 87.518 258.88 87.3831 258.539 87.3459C258.801 87.1259 258.994 86.836 259.097 86.5102C259.199 86.1843 259.207 85.836 259.119 85.5059C257.859 82.3459 253.499 85.0659 250.679 86.9659C250.339 87.1859 250.559 87.1059 250.679 86.3659C250.804 85.8328 250.762 85.2745 250.559 84.7659C250.413 84.5031 250.215 84.2722 249.978 84.0867C249.741 83.9012 249.47 83.765 249.179 83.6859C248.862 83.6361 248.537 83.6752 248.24 83.7987C247.944 83.9223 247.687 84.1255 247.499 84.3859C247.199 84.7459 245.839 87.7259 245.619 88.1659C242.419 90.6859 236.839 95.1459 233.619 97.7859C233.119 97.1859 232.299 96.2259 231.619 96.1459C229.518 96.1543 227.479 96.8575 225.819 98.1459C224.859 99.1059 225.179 99.6859 225.819 100.786C215.579 105.626 199.439 116.306 189.959 118.786C189.359 118.306 188.759 117.886 188.459 117.666C188.801 115.18 188.988 112.675 189.019 110.166C191.439 109.006 194.239 107.226 193.599 104.586C194.59 103.464 195.339 102.15 195.799 100.726C196.946 98.1309 197.532 95.323 197.519 92.4859C197.598 91.8299 197.541 91.1647 197.352 90.5316C197.162 89.8985 196.845 89.3111 196.419 88.8059C195.725 88.1064 194.877 87.5779 193.944 87.262C193.01 86.9461 192.016 86.8516 191.039 86.9859C190.059 86.3459 189.839 84.8459 188.079 84.0659C186.238 83.2571 184.173 83.1156 182.239 83.6659C182.153 83.6001 182.072 83.5264 181.999 83.4459C181.961 83.0238 181.874 82.6076 181.739 82.2059C180.699 79.1059 174.099 77.3259 170.859 81.1859C169.77 82.5661 169.137 84.2505 169.048 86.0062C168.958 87.7619 169.416 89.5021 170.359 90.9859C168.107 94.0986 166.409 97.5762 165.339 101.266C164.159 106.046 164.899 111.266 169.339 113.466C170.572 113.876 171.836 114.183 173.119 114.386L171.839 118.386C170.426 118.268 169.038 117.945 167.719 117.426C162.379 114.066 154.579 100.626 151.539 95.1059C151.766 94.9735 151.942 94.7694 152.039 94.5259C152.479 93.2259 152.139 86.7859 150.159 86.5259C149.549 86.442 148.93 86.442 148.319 86.5259C146.319 80.9059 143.679 71.4259 142.699 67.4259C144.119 66.1058 145.345 64.5906 146.339 62.9259C147.079 61.2859 146.099 60.0059 144.339 60.6659C143.286 61.1415 142.264 61.6826 141.279 62.2859C140.259 58.7259 139.279 57.2859 137.819 57.3859C136.759 57.3859 136.419 58.5859 136.339 59.6459C135.659 58.8059 134.739 58.2659 133.819 58.8259C132.899 59.3859 133.039 60.3859 133.059 60.9459C132.66 60.4653 132.162 60.0764 131.599 59.8059C131.058 59.5716 130.46 59.5021 129.879 59.6059C129.476 59.7672 129.15 60.0767 128.968 60.471C128.785 60.8652 128.761 61.3142 128.899 61.7259C129.37 63.1393 130.118 64.4446 131.099 65.5659C133.999 69.1059 133.599 67.8859 133.999 69.4059C134.839 73.0059 136.879 83.8659 137.839 90.2859C137.299 90.5659 135.659 91.4459 135.499 92.0459C135.294 94.476 135.854 96.9093 137.099 99.0059C137.419 99.4059 138.099 99.4059 138.619 99.3859C139.979 106.846 144.439 129.826 144.499 133.086C144.499 139.386 138.379 161.266 139.519 180.646C138.859 181.866 139.319 187.186 141.079 186.506C141.499 186.346 137.199 197.986 137.479 253.286C137.479 261.606 138.379 313.186 141.019 320.366C141.199 320.846 141.479 321.326 142.019 321.366C142.559 321.406 143.759 321.566 144.959 321.746C144.599 324.746 144.519 324.566 143.879 324.986C141.539 326.526 134.459 328.246 136.139 331.646C136.255 331.846 136.411 332.02 136.597 332.157C136.782 332.295 136.994 332.393 137.219 332.446C139.619 333.206 147.499 332.166 149.539 331.646C150.739 331.346 153.979 331.646 154.599 330.446C155.197 328.899 155.45 327.24 155.339 325.586C155.34 325.444 155.298 325.304 155.219 325.186C155.219 324.566 155.219 323.946 155.079 323.326C156.471 323.602 157.911 323.484 159.239 322.986C161.599 321.226 169.919 261.246 170.879 254.426C167.929 241.477 166.294 228.263 165.999 214.986C166.017 214.917 166.057 214.856 166.113 214.812C166.169 214.769 166.238 214.745 166.309 214.745C166.38 214.745 166.449 214.769 166.505 214.812C166.562 214.856 166.602 214.917 166.619 214.986C166.619 217.786 170.859 251.346 172.219 254.726C182.739 280.586 198.219 320.926 200.539 322.046C202.206 322.689 204.007 322.909 205.779 322.686C206.219 325.086 206.979 328.186 207.639 330.386C208.199 332.226 220.979 341.086 226.659 337.686C230.099 335.686 222.219 328.766 219.119 326.186C218.279 325.466 218.839 327.186 218.599 321.826V320.326C220.199 319.886 222.839 319.086 222.599 317.486C221.039 303.926 207.819 270.966 204.079 250.466C200.219 229.446 193.859 193.246 192.799 187.146C194.419 186.346 194.319 181.846 192.799 179.966C194.159 171.626 198.339 148.306 202.479 141.006C204.479 137.606 226.019 120.726 234.779 113.006C235.103 113.315 235.483 113.56 235.899 113.726C236.199 113.726 236.379 113.726 236.699 113.486C237.579 112.866 241.019 110.146 240.939 109.066C240.544 107.984 240.027 106.951 239.399 105.986C250.139 95.5259 247.179 97.2859 250.139 96.3659C253.099 95.4459 259.819 94.4659 259.199 91.5659ZM217.739 320.526V321.846C217.739 326.106 217.299 326.266 217.739 326.626C215.739 328.166 213.899 327.806 207.259 324.966C207.079 324.326 206.819 323.386 206.619 322.626C208.819 322.386 215.999 320.986 217.739 320.526ZM174.979 124.626C179.546 122.889 183.973 120.803 188.219 118.386C189.183 119.102 190.021 119.974 190.699 120.966C186.108 123.901 181.354 126.572 176.459 128.966C175.803 127.58 175.306 126.124 174.979 124.626ZM170.119 112.046C169.249 111.628 168.489 111.012 167.898 110.248C167.308 109.485 166.904 108.593 166.719 107.646C165.779 103.646 167.219 99.6459 168.979 96.0659C169.647 94.6783 170.416 93.3414 171.279 92.0659C172.769 93.4514 174.524 94.5203 176.439 95.2078C178.354 95.8954 180.388 96.1873 182.419 96.0659C183.541 96.0748 184.654 95.8712 185.699 95.4659C185.819 97.4659 183.699 106.686 187.559 105.466C188.648 104.961 189.704 104.386 190.719 103.746C192.239 103.066 192.379 104.206 192.519 104.786C192.999 106.786 190.519 108.146 188.639 108.986C187.939 109.306 187.879 109.446 187.819 109.686C187.559 110.486 187.059 117.266 187.039 117.486C182.279 119.866 182.479 119.486 176.819 122.066C175.199 122.786 174.819 122.966 174.559 123.086C174.159 121.966 173.559 119.666 173.359 118.946L174.979 114.046C175.016 113.938 175.028 113.824 175.015 113.711C175.003 113.598 174.966 113.489 174.907 113.392C174.848 113.294 174.768 113.211 174.673 113.148C174.579 113.085 174.472 113.043 174.359 113.026C172.926 112.791 171.51 112.464 170.119 112.046ZM172.939 123.366C171.232 123.939 169.457 124.282 167.659 124.386C167.361 122.323 167.361 120.228 167.659 118.166C168.359 118.366 171.519 119.486 171.519 119.486C172.099 120.745 172.574 122.049 172.939 123.386V123.366ZM135.019 68.0459C134.799 67.3659 129.959 62.5459 130.399 61.0059C131.279 61.0059 131.719 61.6259 132.239 62.2659C132.819 62.9945 133.347 63.763 133.819 64.5659C133.899 64.7515 134.049 64.898 134.236 64.973C134.424 65.048 134.634 65.0455 134.819 64.9659C135.005 64.8863 135.151 64.7363 135.226 64.5487C135.301 64.3612 135.299 64.1515 135.219 63.9659C134.79 62.7475 134.614 61.4547 134.699 60.1659C135.419 60.5059 136.359 62.5859 136.699 63.2859C136.778 63.4496 136.912 63.5806 137.078 63.6562C137.243 63.7317 137.43 63.7471 137.605 63.6997C137.781 63.6522 137.934 63.5449 138.039 63.3963C138.144 63.2477 138.193 63.0672 138.179 62.8859C138.059 62.1059 137.719 58.5259 138.179 58.8859H138.039C138.839 58.8859 140.039 62.7859 140.039 63.1259C140.779 65.4459 142.919 62.5259 145.239 61.9659C144.972 62.7363 144.55 63.444 143.999 64.0459C141.999 66.6459 141.279 66.5859 141.399 67.5259C141.399 67.7859 144.699 79.2859 147.739 86.6859C144.514 87.4665 141.383 88.593 138.399 90.0459C137.999 86.9459 135.999 70.8259 135.019 68.0459ZM137.839 98.1859C136.705 96.3867 136.083 94.3123 136.039 92.1859C136.319 91.3659 147.379 87.6059 149.879 87.8659C150.598 89.7448 150.885 91.7611 150.719 93.7659C149.039 94.8059 139.999 98.2459 137.839 98.1659V98.1859ZM140.719 185.746C139.891 184.269 139.635 182.539 139.999 180.886C140.04 180.909 140.086 180.922 140.133 180.926C140.18 180.929 140.228 180.922 140.272 180.904C140.316 180.887 140.355 180.86 140.388 180.826C140.42 180.792 140.445 180.751 140.459 180.706C140.959 178.846 157.539 178.706 159.439 178.706C159.128 180.598 159.223 182.534 159.719 184.386C157.399 184.386 142.899 184.826 140.719 185.726V185.746ZM169.859 178.586C170.14 180.804 170.059 183.054 169.619 185.246C166.966 185.685 164.255 185.637 161.619 185.106C160.735 182.982 160.498 180.644 160.939 178.386C163.64 177.925 166.383 177.764 169.119 177.906C169.539 177.906 169.659 177.726 169.859 178.566V178.586ZM169.679 185.226C169.679 185.366 169.739 185.186 169.679 185.206V185.226ZM191.419 180.746C191.887 181.454 192.191 182.258 192.309 183.099C192.427 183.94 192.355 184.796 192.099 185.606C188.799 184.326 174.639 184.246 171.079 184.226C171.19 182.395 171.049 180.558 170.659 178.766C172.619 178.786 189.999 179.306 191.419 180.726V180.746ZM153.999 324.886C151.162 325.066 148.316 325.066 145.479 324.886C145.179 324.886 145.619 325.546 145.779 321.866C148.339 322.306 151.459 322.866 153.999 323.166V324.886ZM201.159 140.246C196.899 147.706 192.799 170.466 191.399 179.006C187.279 177.606 173.979 177.326 169.639 177.286C168.099 176.926 160.959 176.226 159.919 177.426C156.159 177.546 144.239 178.046 140.879 179.646C139.879 160.846 145.719 139.306 145.559 133.066C145.559 129.646 140.459 105.066 139.319 99.2859C143.379 98.4061 147.325 97.064 151.079 95.2859C154.199 101.186 161.559 114.046 166.979 118.046C166.659 119.466 165.639 124.246 166.519 125.406C166.787 125.648 167.106 125.826 167.452 125.926C167.799 126.027 168.164 126.047 168.519 125.986C168.086 127.053 167.862 128.194 167.859 129.346C166.777 130.62 165.768 131.956 164.839 133.346C160.091 141.301 158.655 150.802 160.839 159.806C161.379 162.106 162.419 167.566 164.959 168.066C165.499 168.066 166.339 168.066 166.799 168.306L172.239 170.066C172.435 170.129 172.649 170.112 172.832 170.018C173.016 169.924 173.155 169.762 173.219 169.566C173.379 169.146 173.719 167.146 173.819 166.826C174.239 165.506 175.819 163.046 174.639 162.166C168.979 157.986 168.359 147.726 169.279 140.746C170.181 137.676 171.318 134.681 172.679 131.786C172.998 131.814 173.319 131.765 173.614 131.643C173.91 131.521 174.173 131.33 174.379 131.086C175.779 129.926 175.219 130.026 175.619 130.266C175.799 130.346 175.993 130.387 176.189 130.387C176.386 130.387 176.58 130.346 176.759 130.266C181.988 127.994 186.924 125.1 191.459 121.646C192.099 121.126 191.619 120.346 191.039 119.766C200.299 117.226 216.359 106.786 226.579 102.006C228.688 105.53 231.083 108.874 233.739 112.006C224.759 119.826 203.319 136.446 201.159 140.246ZM226.799 99.4659C228.096 98.4055 229.688 97.7701 231.359 97.6459C234.757 101.155 237.761 105.025 240.319 109.186C240.319 109.826 236.979 112.166 236.099 112.686C234.139 111.366 228.099 101.626 226.799 99.4659ZM257.259 85.6659C257.322 85.6895 257.378 85.7286 257.422 85.7795C257.466 85.8305 257.496 85.8917 257.51 85.9575C257.524 86.0233 257.521 86.0915 257.502 86.1559C257.483 86.2203 257.447 86.2788 257.399 86.3259C256.271 87.2066 255.034 87.9392 253.719 88.5059C253.626 88.5492 253.542 88.6105 253.473 88.6862C253.403 88.7619 253.349 88.8506 253.314 88.9472C253.279 89.0438 253.263 89.1463 253.267 89.2491C253.271 89.3518 253.296 89.4527 253.339 89.5459C253.383 89.6391 253.444 89.7229 253.52 89.7925C253.595 89.862 253.684 89.916 253.781 89.9513C253.877 89.9866 253.98 90.0025 254.082 89.9981C254.185 89.9938 254.286 89.9692 254.379 89.9259C255.547 89.3197 256.827 88.9589 258.139 88.8659C258.165 88.8763 258.187 88.8942 258.203 88.9174C258.219 88.9406 258.227 88.9679 258.227 88.9959C258.227 89.0239 258.219 89.0512 258.203 89.0744C258.187 89.0976 258.165 89.1155 258.139 89.1259C256.924 89.8413 255.645 90.4438 254.319 90.9259C254.155 91.0177 254.029 91.1658 253.966 91.3429C253.902 91.52 253.904 91.7142 253.973 91.8896C254.041 92.065 254.17 92.2098 254.337 92.2974C254.503 92.3849 254.696 92.4092 254.879 92.3659C255.479 92.1259 257.559 91.4659 257.639 91.8859C257.899 93.0459 250.319 94.9259 249.639 95.1459C246.279 96.2859 249.359 94.2459 238.839 105.326C237.398 102.923 235.808 100.611 234.079 98.4059L246.459 89.1259C246.659 88.9659 246.559 89.0059 247.759 86.6459C248.119 85.9059 248.659 84.4659 249.159 85.4259C249.259 85.6259 248.779 87.5259 248.899 88.1659C248.915 88.3029 248.96 88.435 249.031 88.5532C249.102 88.6713 249.198 88.7728 249.312 88.8506C249.425 88.9284 249.555 88.9808 249.691 89.0041C249.827 89.0275 249.966 89.0213 250.099 88.9859C250.939 88.7259 255.699 85.0859 257.259 85.6659ZM369.659 352.966C367.379 348.426 361.399 324.966 358.419 313.926C362.699 312.646 371.759 310.666 372.639 307.926C373.519 305.186 370.799 300.706 369.839 298.526C366.279 290.526 363.259 258.166 360.519 246.686C359.56 241.622 357.854 236.729 355.459 232.166C355.56 232.054 355.641 231.925 355.699 231.786C355.932 230.913 356.099 230.024 356.199 229.126C356.22 228.951 356.193 228.774 356.123 228.612C356.053 228.451 355.941 228.31 355.799 228.206C356.405 225.898 357.249 223.659 358.319 221.526C362.488 215.656 365.62 209.114 367.579 202.186C368.347 199.776 368.19 197.167 367.139 194.866C367.124 194.824 367.1 194.785 367.069 194.752C367.039 194.719 367.002 194.693 366.961 194.674C366.92 194.656 366.876 194.645 366.831 194.644C366.786 194.642 366.741 194.65 366.699 194.666C366.239 194.806 366.539 195.166 366.699 196.446C366.959 201.046 357.239 215.806 345.259 220.326C339.919 222.326 323.459 221.786 317.599 221.146C317.719 221.966 318.159 223.826 318.879 224.106C318.692 224.956 318.692 225.836 318.879 226.686C318.019 228.686 310.319 257.906 309.799 259.886C305.799 275.546 296.799 292.246 288.699 307.566C287.659 309.566 287.039 312.606 288.419 314.326C291.233 317.274 294.872 319.302 298.859 320.146C294.179 333.706 286.319 356.526 285.319 359.306C283.159 360.306 274.939 362.266 271.939 363.666C269.759 364.706 268.419 367.846 270.619 368.826C274.219 370.406 287.059 369.286 290.959 368.826V370.826C290.947 371.015 291.006 371.202 291.124 371.35C291.243 371.498 291.412 371.596 291.599 371.626L296.039 372.326C296.144 372.343 296.25 372.34 296.353 372.316C296.456 372.292 296.553 372.248 296.639 372.186C297.019 371.906 296.859 372.186 297.919 363.206C298.319 362.446 311.179 337.206 318.199 323.506C323.886 323.378 329.558 322.877 335.179 322.006C335.909 321.905 336.631 321.751 337.339 321.546C340.919 330.106 350.499 352.866 356.099 359.046C353.939 363.046 346.919 373.766 350.099 375.666C353.639 377.826 363.099 365.806 367.159 361.346C367.879 362.086 368.879 363.206 369.739 363.146C370.609 363.053 371.438 362.729 372.139 362.206C374.659 360.226 371.759 357.146 369.659 352.966ZM319.799 226.966C319.38 225.989 319.275 224.905 319.499 223.866C319.919 223.866 353.639 229.106 354.619 229.386C354.529 229.972 354.409 230.552 354.259 231.126C346.199 231.646 321.519 227.806 319.799 227.046V226.966ZM296.759 362.046C294.999 362.278 293.209 362.103 291.528 361.534C289.846 360.965 288.317 360.018 287.059 358.766C289.059 353.026 295.579 332.766 299.619 320.426C305.306 322.276 311.223 323.326 317.199 323.546C310.365 336.368 303.552 349.202 296.759 362.046ZM334.919 320.526C331.819 320.906 328.919 321.306 325.919 321.586C332.899 296.546 340.439 265.026 341.919 239.126C341.925 239.044 341.899 238.963 341.847 238.9C341.795 238.837 341.721 238.796 341.639 238.786C340.719 238.786 342.319 239.626 335.959 272.406C334.819 278.406 326.179 317.326 325.199 321.646C319.939 322.237 314.621 322.096 309.399 321.226C323.259 299.086 330.719 263.886 333.599 237.806C333.606 237.727 333.582 237.649 333.534 237.586C333.486 237.523 333.417 237.48 333.339 237.466C332.819 237.466 333.219 237.146 331.339 248.046C327.339 269.486 319.899 302.306 308.819 321.106C304.419 320.153 300.072 318.964 295.799 317.546C312.639 299.766 322.539 260.946 325.679 236.486C325.691 236.404 325.67 236.321 325.622 236.253C325.573 236.186 325.501 236.141 325.419 236.126C324.879 236.126 325.419 235.866 323.079 246.646C318.719 267.226 309.079 301.466 295.079 317.286C292.943 316.465 291.041 315.133 289.539 313.406C288.619 312.246 289.279 309.666 289.979 308.346C297.979 293.006 306.959 276.346 311.059 260.346C313.739 249.686 319.379 228.466 319.539 227.906C322.399 229.266 350.919 234.086 354.859 232.626C357.152 237.151 358.763 241.99 359.639 246.986C362.279 258.566 364.839 290.666 368.519 299.186C369.239 300.866 371.899 305.586 371.219 307.586C370.779 308.866 364.819 310.606 363.539 310.986C357.699 298.866 356.499 253.866 352.459 239.406C352.438 239.324 352.385 239.253 352.312 239.21C352.239 239.167 352.151 239.155 352.069 239.176C351.987 239.197 351.917 239.25 351.873 239.323C351.83 239.396 351.818 239.484 351.839 239.566C354.379 250.006 355.219 296.746 362.899 311.166C359.859 312.046 356.899 312.766 355.839 313.266C354.099 314.066 349.139 316.006 344.379 317.686C346.839 292.466 348.799 265.286 347.879 239.686C347.862 239.617 347.822 239.556 347.765 239.512C347.709 239.469 347.64 239.445 347.569 239.445C347.498 239.445 347.429 239.469 347.373 239.512C347.317 239.556 347.277 239.617 347.259 239.686C347.259 241.986 344.059 311.686 343.719 317.846C340.848 318.933 337.909 319.828 334.919 320.526ZM356.319 357.186C351.099 350.566 341.779 329.806 338.039 321.366C346.439 318.946 356.639 314.506 357.419 314.246C359.939 324.426 364.299 342.606 367.199 350.886C363.784 353.331 360.14 355.441 356.319 357.186Z" fill="black"/>
<path fill-rule="evenodd" clip-rule="evenodd" d="M286.779 207.366C285.239 207.366 284.339 208.326 284.779 209.886C284.903 210.213 285.127 210.493 285.419 210.686C285.187 210.884 285.01 211.138 284.905 211.425C284.799 211.711 284.769 212.019 284.818 212.321C284.866 212.622 284.991 212.906 285.18 213.145C285.369 213.384 285.617 213.57 285.899 213.686C284.759 214.626 285.719 216.166 287.099 216.426C288.162 216.702 289.263 216.803 290.359 216.726C292.599 216.526 294.859 215.426 296.919 215.686C298.979 215.946 300.159 216.046 309.679 217.086V218.506C309.696 218.676 309.757 218.839 309.855 218.979C309.953 219.119 310.085 219.232 310.239 219.306C310.784 219.536 311.355 219.697 311.939 219.786C322.319 221.786 340.959 220.546 344.599 219.106C353.079 215.826 361.239 206.466 364.239 199.366C364.667 198.504 364.918 197.566 364.979 196.606C364.953 195.016 364.386 193.482 363.372 192.257C362.358 191.032 360.957 190.188 359.399 189.866C354.259 188.806 347.939 192.486 343.399 195.306C336.539 199.586 329.879 205.046 328.819 204.966C328.599 204.966 315.739 202.966 311.179 205.106C310.599 205.366 310.499 206.246 310.399 206.926C305.879 206.926 298.919 207.066 296.399 207.386C295.702 207.572 294.994 207.712 294.279 207.806C294.039 207.806 293.999 207.806 293.819 207.166C293.439 205.806 293.439 204.226 292.199 203.546C290.959 202.866 289.359 203.966 289.539 207.826C288.66 207.486 287.721 207.329 286.779 207.366ZM288.939 209.106C289.639 209.386 290.379 209.846 290.939 209.346C291.499 208.846 291.159 208.126 291.159 207.526C291.159 206.926 291.159 205.286 291.699 204.886C291.812 205.009 291.912 205.143 291.999 205.286C292.479 206.226 292.399 207.946 293.259 208.786C294.119 209.626 295.739 208.786 296.719 208.686C299.239 208.286 305.999 207.946 310.479 207.726C310.199 209.886 309.939 213.726 309.839 216.226C310.099 216.226 298.839 214.626 297.239 214.366C294.379 213.926 291.459 215.646 288.859 215.186C288.276 215.101 287.7 214.967 287.139 214.786C288.137 214.398 289.19 214.176 290.259 214.126C290.446 214.083 290.611 213.972 290.721 213.815C290.832 213.658 290.881 213.466 290.858 213.275C290.836 213.085 290.744 212.909 290.601 212.782C290.457 212.655 290.271 212.585 290.079 212.586C289.096 212.613 288.113 212.559 287.139 212.426C286.619 212.426 286.059 211.926 287.139 211.806C288.219 211.686 289.759 211.806 290.119 211.806C290.313 211.813 290.502 211.747 290.65 211.621C290.798 211.495 290.894 211.319 290.919 211.127C290.944 210.934 290.896 210.74 290.786 210.58C290.675 210.421 290.508 210.309 290.319 210.266C287.019 209.566 288.619 210.006 286.999 209.666C286.039 209.466 286.339 209.046 286.999 209.006C287.648 208.971 288.298 209.004 288.939 209.106Z" fill="black"/>
<path fill-rule="evenodd" clip-rule="evenodd" d="M379.739 170.346C379.02 168.841 377.881 167.577 376.459 166.706C375.259 165.606 376.299 163.886 375.579 160.846C375.178 159.299 374.433 157.864 373.399 156.646C370.799 153.226 369.219 153.986 368.879 150.806C368.865 149.76 368.669 148.725 368.299 147.746C367.631 146.454 366.698 145.318 365.56 144.412C364.423 143.505 363.107 142.849 361.699 142.486C360.869 142.106 359.972 141.895 359.059 141.866C356.199 141.866 354.739 143.226 352.519 144.326C352.519 144.326 352.219 144.206 352.159 144.166C351.515 143.437 350.61 142.992 349.639 142.926C347.666 142.948 345.723 143.42 343.959 144.306C343.28 144.645 342.678 145.121 342.189 145.702C341.701 146.283 341.337 146.958 341.119 147.686C340.419 148.986 339.119 147.686 336.679 149.686C336.018 150.263 335.515 151 335.219 151.826C334.957 152.341 334.855 152.923 334.927 153.497C334.998 154.071 335.239 154.61 335.619 155.046C336.019 155.546 335.899 155.046 334.219 155.826C332.684 156.561 331.37 157.688 330.408 159.092C329.446 160.496 328.87 162.129 328.739 163.826C328.809 164.871 329.111 165.887 329.623 166.8C330.135 167.714 330.844 168.501 331.699 169.106C332.958 169.543 334.258 169.851 335.579 170.026C336.959 170.526 338.099 172.026 340.199 171.706C340.334 172.833 340.695 173.921 341.259 174.906C341.792 176.152 342.769 177.157 343.999 177.726C343.419 178.386 342.099 179.726 341.359 180.466C337.599 179.206 316.899 172.466 314.059 169.786C310.919 166.826 306.059 158.746 302.419 154.206C302.079 153.786 301.279 154.066 300.679 154.206C300.079 153.306 294.679 145.326 294.679 144.926C294.679 144.926 294.779 144.926 294.919 144.626C295.463 144.057 295.832 143.343 295.981 142.569C296.129 141.796 296.053 140.997 295.759 140.266C294.999 138.606 293.399 137.126 291.759 137.826C291.359 134.926 290.719 132.126 290.379 130.706C293.979 130.706 305.479 130.326 306.379 126.826C307.499 122.446 295.639 115.906 291.679 114.186C291.559 110.726 291.039 97.7059 287.679 96.7259C283.679 95.5659 275.679 104.726 273.139 107.766C269.196 106.686 265.127 106.135 261.039 106.126C258.859 106.126 253.979 106.126 252.639 107.926C249.859 111.426 260.639 118.706 264.459 121.106C259.719 124.326 249.299 129.466 250.979 133.106C252.659 136.746 269.739 134.666 273.779 134.126C276.735 138.046 280.086 141.651 283.779 144.886C285.301 149.819 287.186 154.632 289.419 159.286C289.053 159.496 288.705 159.737 288.379 160.006C288.34 160.065 288.319 160.135 288.319 160.206C288.319 160.277 288.34 160.347 288.379 160.406C289.139 162.266 298.639 180.026 299.859 181.206C309.679 190.726 320.779 191.606 322.179 193.846C322.179 194.786 320.999 198.926 319.919 203.446C322.952 203.441 325.984 203.601 328.999 203.926C332.499 202.046 340.319 194.746 349.299 190.346C358.279 185.946 361.879 189.466 362.199 188.966C362.219 188.944 362.23 188.915 362.23 188.886C362.23 188.856 362.219 188.828 362.199 188.806C359.719 186.806 359.499 186.646 354.659 184.806C355.019 183.206 355.539 180.626 355.799 179.666C356.832 179.18 357.762 178.501 358.539 177.666C359.519 177.906 359.699 178.906 360.839 179.126C362.835 179.076 364.76 178.373 366.319 177.126C366.779 176.786 367.859 175.946 368.319 175.966C369.299 175.966 370.319 177.126 371.419 177.426C375.999 178.786 381.219 174.486 379.739 170.346ZM274.579 133.086C274.502 132.994 274.403 132.924 274.291 132.882C274.178 132.84 274.058 132.828 273.939 132.846C268.643 133.663 263.297 134.11 257.939 134.186C251.679 134.066 249.639 132.846 254.439 128.786C259.779 124.286 266.299 121.586 265.219 120.906C262.359 119.106 251.219 111.226 253.419 108.606C254.499 107.286 259.419 107.266 261.039 107.306C265.142 107.368 269.215 108.008 273.139 109.206C273.268 109.254 273.409 109.26 273.541 109.224C273.674 109.188 273.792 109.112 273.879 109.006C275.979 106.486 285.619 96.0659 287.599 98.4859C289.579 100.906 290.079 111.766 290.139 114.786C290.138 114.938 290.183 115.086 290.269 115.212C290.355 115.337 290.477 115.433 290.619 115.486C294.159 116.886 305.599 123.486 304.839 126.486C304.839 126.846 304.339 127.106 303.819 127.346C300.739 128.866 292.779 129.246 289.399 129.246C289.281 129.246 289.165 129.272 289.059 129.323C288.953 129.375 288.86 129.449 288.787 129.542C288.713 129.634 288.662 129.742 288.637 129.857C288.611 129.972 288.612 130.091 288.639 130.206C289.499 133.486 291.239 141.666 290.379 144.966C290.239 145.526 290.079 145.966 289.699 146.086C286.219 147.226 276.799 136.046 274.579 133.086ZM290.019 159.086C288.439 155.226 286.859 150.386 285.679 146.406C289.539 148.846 291.959 148.046 292.079 143.026C292.839 142.466 292.359 141.526 292.079 140.766C292.079 140.386 292.079 139.986 291.979 139.606C293.019 138.786 293.979 139.946 294.499 141.046C295.319 142.726 293.359 144.026 293.379 145.046C293.399 146.066 299.379 153.726 299.959 154.506C298.599 155.026 291.999 157.926 289.999 159.026L290.019 159.086ZM359.119 167.346C358.959 169.046 356.539 170.266 355.739 172.126C355.229 173.5 355.229 175.012 355.739 176.386C355.976 176.851 356.374 177.214 356.859 177.406C355.159 178.966 354.859 178.386 354.459 179.126C354.059 179.866 353.039 185.566 352.579 186.866C350.579 188.446 347.379 188.126 344.839 187.706C342.838 187.236 341.067 186.074 339.839 184.426C341.159 182.806 345.539 178.766 345.719 177.946C345.899 177.126 345.159 176.646 344.439 176.266C344.159 176.106 343.639 176.026 342.659 174.266C341.219 171.646 341.659 169.366 341.799 166.126C341.799 164.406 341.799 162.586 341.959 160.826C342.106 159.28 342.555 157.779 343.279 156.406C343.632 156.345 343.975 156.238 344.299 156.086C345.568 155.144 346.647 153.97 347.479 152.626C347.514 153.124 347.657 153.609 347.899 154.046C348.699 155.386 349.899 154.686 351.279 155.106C351.32 155.25 351.32 155.402 351.279 155.546C351.188 155.961 351.188 156.391 351.279 156.806C351.572 157.4 352.013 157.91 352.559 158.284C353.106 158.659 353.739 158.887 354.399 158.946C354.699 158.946 355.479 158.946 355.619 159.146C355.619 159.826 354.839 160.286 355.039 162.126C355.139 163.1 355.569 164.011 356.259 164.706C357.999 166.486 359.239 165.806 359.119 167.286V167.346Z" fill="black"/>
<path fill-rule="evenodd" clip-rule="evenodd" d="M344.459 163.326C344.719 161.686 343.119 161.826 342.979 163.086V163.746C343.009 163.924 343.1 164.086 343.237 164.202C343.375 164.319 343.549 164.383 343.729 164.383C343.91 164.383 344.084 164.319 344.222 164.202C344.359 164.086 344.45 163.924 344.479 163.746C344.465 163.606 344.458 163.466 344.459 163.326ZM345.699 167.706C347.879 161.846 347.319 163.146 347.699 162.326C347.737 162.255 347.746 162.172 347.726 162.094C347.705 162.016 347.655 161.949 347.587 161.906C347.519 161.863 347.437 161.847 347.358 161.862C347.278 161.877 347.208 161.921 347.159 161.986C346.551 162.669 346.015 163.413 345.559 164.206C345.022 165.185 344.605 166.226 344.319 167.306C344.244 167.548 344.236 167.806 344.296 168.053C344.355 168.3 344.481 168.525 344.659 168.706C345.032 169.109 345.521 169.387 346.058 169.502C346.595 169.616 347.155 169.562 347.659 169.346C347.728 169.328 347.789 169.288 347.833 169.232C347.876 169.176 347.9 169.107 347.9 169.036C347.9 168.965 347.876 168.896 347.833 168.84C347.789 168.784 347.728 168.743 347.659 168.726C347.275 168.725 346.896 168.632 346.555 168.455C346.214 168.277 345.921 168.02 345.699 167.706ZM350.719 163.546C350.619 163.866 350.519 164.286 350.359 164.846C350.306 165.037 350.331 165.241 350.429 165.414C350.526 165.586 350.689 165.713 350.879 165.766C351.07 165.819 351.275 165.794 351.447 165.696C351.62 165.599 351.746 165.437 351.799 165.246C351.999 164.566 352.059 164.286 352.139 164.046C352.176 163.866 352.146 163.679 352.056 163.52C351.965 163.36 351.82 163.239 351.647 163.178C351.474 163.117 351.285 163.121 351.114 163.188C350.944 163.256 350.804 163.383 350.719 163.546ZM349.099 171.766C348.775 172.246 348.337 172.638 347.824 172.907C347.311 173.175 346.739 173.313 346.159 173.306C346.117 173.282 346.07 173.269 346.021 173.266C345.972 173.264 345.924 173.272 345.879 173.292C345.835 173.311 345.795 173.34 345.763 173.376C345.731 173.413 345.708 173.457 345.695 173.503C345.683 173.55 345.681 173.6 345.691 173.647C345.7 173.695 345.72 173.74 345.749 173.779C345.779 173.818 345.816 173.849 345.86 173.871C345.903 173.893 345.951 173.905 345.999 173.906C346.356 174.155 346.775 174.3 347.209 174.325C347.644 174.349 348.076 174.252 348.458 174.045C348.841 173.837 349.157 173.527 349.373 173.149C349.589 172.771 349.695 172.341 349.679 171.906C349.689 171.832 349.671 171.758 349.629 171.697C349.588 171.636 349.524 171.592 349.452 171.575C349.38 171.558 349.305 171.567 349.239 171.603C349.174 171.638 349.124 171.696 349.099 171.766ZM165.539 63.3459C172.619 65.8659 191.119 63.7259 198.559 62.6259C202.919 68.6259 213.639 82.4059 220.559 84.9859C223.199 85.9459 225.259 85.4259 226.199 82.7659C228.199 77.1659 225.239 62.7659 223.919 56.7659C229.579 56.7659 242.779 56.1059 247.459 52.9459C255.799 47.3259 234.659 33.6059 226.039 29.6859C225.839 23.8259 224.939 6.72588 221.739 1.68588C220.759 0.165883 219.399 -0.474117 216.899 0.385883C210.899 2.50588 201.319 13.7259 197.339 18.8259C190.419 16.3459 175.839 14.8259 168.759 16.7059C165.899 17.4459 163.879 18.7059 164.519 21.7259C165.819 27.7259 178.839 37.3859 183.919 40.8659C178.579 44.8659 165.199 52.3059 162.739 57.9859C161.719 60.6459 162.859 62.3859 165.539 63.3459ZM184.739 41.2259C184.781 41.1985 184.815 41.1614 184.838 41.1177C184.861 41.0741 184.874 41.0254 184.874 40.9759C184.874 40.9264 184.861 40.8776 184.838 40.834C184.815 40.7904 184.781 40.7532 184.739 40.7259C179.739 37.3659 167.859 28.2259 165.779 22.4659C164.759 19.7059 166.239 18.4659 169.119 17.8259C176.019 16.0859 190.779 17.7059 197.419 20.3459C197.553 20.3963 197.699 20.402 197.836 20.3624C197.973 20.3227 198.094 20.2398 198.179 20.1259C201.379 15.9659 214.739 0.125883 219.659 1.72588C223.399 2.92588 224.499 26.0259 224.599 30.3059C224.603 30.4564 224.651 30.6027 224.736 30.7269C224.821 30.8511 224.94 30.948 225.079 31.0059C232.179 34.0059 253.079 47.4659 246.699 51.7259C242.299 54.7059 228.379 55.3259 223.039 55.3259C222.922 55.3248 222.806 55.351 222.7 55.4024C222.595 55.4537 222.502 55.5289 222.431 55.6219C222.359 55.7149 222.31 55.8232 222.287 55.9385C222.264 56.0537 222.269 56.1726 222.299 56.2859C223.639 61.7259 226.759 76.9859 224.899 82.2859C222.059 90.2859 204.479 68.6059 199.439 61.5259C199.363 61.4277 199.261 61.3518 199.145 61.3061C199.029 61.2604 198.903 61.2465 198.779 61.2659C193.199 62.1459 165.879 65.8659 163.579 60.7459C161.279 55.6259 179.419 45.3459 184.739 41.2259ZM170.659 99.3859C170.659 99.2259 170.859 98.3859 170.879 98.3659C170.936 98.1933 170.93 98.006 170.86 97.838C170.791 97.67 170.664 97.5325 170.502 97.4502C170.34 97.368 170.153 97.3465 169.977 97.3898C169.8 97.433 169.645 97.5381 169.539 97.6859C169.397 98.0739 169.296 98.4762 169.239 98.8859C169.203 99.0656 169.233 99.2525 169.323 99.412C169.414 99.5715 169.559 99.6929 169.732 99.7538C169.905 99.8147 170.094 99.811 170.265 99.7434C170.435 99.6758 170.575 99.5488 170.659 99.3859ZM173.579 98.7259C172.051 100.167 170.963 102.012 170.439 104.046C170.283 104.458 170.283 104.914 170.439 105.326C171.039 106.106 171.819 105.886 172.839 105.626C172.908 105.608 172.969 105.568 173.013 105.512C173.056 105.456 173.08 105.387 173.08 105.316C173.08 105.245 173.056 105.176 173.013 105.12C172.969 105.064 172.908 105.024 172.839 105.006C172.449 104.96 172.066 104.866 171.699 104.726C171.699 104.526 173.079 101.546 173.699 100.106C173.839 99.7259 173.959 99.4259 174.059 99.1859C174.159 98.9459 173.819 98.3859 173.579 98.7259ZM177.699 101.386C177.879 100.766 177.939 100.586 177.979 100.406C178.003 100.311 178.008 100.213 177.994 100.117C177.979 100.02 177.946 99.9276 177.896 99.844C177.846 99.7605 177.78 99.6876 177.701 99.6296C177.623 99.5715 177.534 99.5295 177.439 99.5059C177.345 99.4822 177.247 99.4775 177.15 99.4918C177.054 99.5062 176.961 99.5393 176.878 99.5895C176.794 99.6396 176.721 99.7057 176.663 99.784C176.605 99.8624 176.563 99.9513 176.539 100.046L176.259 101.006C176.235 101.1 176.228 101.199 176.242 101.296C176.255 101.393 176.287 101.486 176.336 101.571C176.385 101.655 176.451 101.729 176.528 101.788C176.606 101.848 176.695 101.891 176.789 101.916C176.884 101.941 176.983 101.947 177.079 101.934C177.176 101.921 177.27 101.889 177.354 101.839C177.439 101.79 177.513 101.725 177.572 101.647C177.631 101.569 177.675 101.48 177.699 101.386ZM175.839 109.266C176.305 108.831 176.644 108.278 176.819 107.666C176.841 107.632 176.855 107.594 176.861 107.554C176.867 107.515 176.866 107.474 176.856 107.435C176.847 107.396 176.83 107.359 176.807 107.327C176.783 107.294 176.754 107.267 176.719 107.246C176.685 107.225 176.647 107.211 176.608 107.204C176.568 107.198 176.528 107.2 176.489 107.209C176.45 107.218 176.413 107.235 176.381 107.259C176.348 107.282 176.32 107.312 176.299 107.346C175.376 108.049 174.288 108.504 173.139 108.666L170.779 108.906C170.737 108.882 170.69 108.869 170.641 108.866C170.592 108.864 170.544 108.872 170.499 108.892C170.455 108.911 170.415 108.94 170.383 108.976C170.351 109.013 170.328 109.056 170.315 109.103C170.303 109.15 170.301 109.2 170.311 109.247C170.32 109.295 170.34 109.34 170.369 109.379C170.399 109.418 170.436 109.449 170.48 109.471C170.523 109.493 170.571 109.505 170.619 109.506C170.874 109.657 171.142 109.784 171.419 109.886C172.148 110.168 172.936 110.259 173.71 110.151C174.484 110.042 175.217 109.738 175.839 109.266Z" fill="black"/>
</svg>
