<svg width="15" height="25" viewBox="0 0 15 25" fill="none" xmlns="http://www.w3.org/2000/svg">
<path d="M13.7087 10.9108C12.7631 9.78399 11.7263 8.73711 10.6087 7.78075C7.42343 4.98321 4.0633 2.3913 0.548679 0.0207501C0.496153 0.00359698 0.440759 -0.00302312 0.385671 0.00126913C0.330583 0.00556138 0.276883 0.0206816 0.227648 0.0457634C0.178413 0.0708453 0.134612 0.105396 0.0987529 0.147435C0.0628941 0.189474 0.0356832 0.238176 0.018679 0.29075C-0.0136736 0.398216 -0.00373828 0.513982 0.0464524 0.614363C0.0966431 0.714745 0.183295 0.792153 0.288679 0.83075C3.09978 2.94043 5.80319 5.18993 8.38868 7.57075C9.80945 8.78868 11.1459 10.1017 12.3887 11.5007C12.5687 11.7207 12.8187 11.9708 12.9187 12.1208C12.7987 12.1208 12.7387 12.4308 12.5587 12.6508C11.7127 13.6251 10.8182 14.5563 9.87868 15.4408C6.81868 18.4408 2.58868 22.2707 1.46868 23.3507C1.42278 23.3812 1.38405 23.4213 1.35518 23.4682C1.3263 23.5151 1.30797 23.5677 1.30145 23.6224C1.29493 23.6771 1.30038 23.7326 1.31742 23.7849C1.33446 23.8373 1.36268 23.8854 1.40013 23.9258C1.43759 23.9662 1.48337 23.9979 1.53432 24.0189C1.58527 24.0398 1.64016 24.0494 1.69519 24.047C1.75022 24.0447 1.80408 24.0303 1.85303 24.0051C1.90198 23.9798 1.94485 23.9442 1.97868 23.9007C3.30868 22.7407 8.90868 18.2608 11.9787 15.2808C12.6556 14.6663 13.281 13.9974 13.8487 13.2808C14.0732 13.0152 14.2309 12.6997 14.3087 12.3608C14.2791 11.8233 14.0675 11.3119 13.7087 10.9108ZM12.8987 12.3007V12.2107C12.9487 12.2407 12.9587 12.2907 12.8987 12.3007Z" fill="black"/>
</svg>
