<svg width="15" height="25" viewBox="0 0 15 25" fill="none" xmlns="http://www.w3.org/2000/svg">
<path d="M14.3 0.309011C14.2851 0.254637 14.2594 0.20382 14.2245 0.159587C14.1895 0.115354 14.146 0.0786119 14.0965 0.0515499C14.0471 0.0244879 13.9927 0.00766028 13.9366 0.00206994C13.8805 -0.0035204 13.8238 0.00224101 13.77 0.0190108C10.2554 2.38956 6.89525 4.98147 3.71 7.77901C2.5924 8.73537 1.55555 9.78225 0.61 10.909C0.245414 11.3114 0.0300728 11.8268 0 12.369C0.0777553 12.708 0.235479 13.0234 0.46 13.289C1.02764 14.0057 1.65307 14.6746 2.33 15.289C5.43 18.289 11.03 22.749 12.33 23.909C12.3638 23.9525 12.4067 23.9881 12.4557 24.0133C12.5046 24.0386 12.5585 24.0529 12.6135 24.0553C12.6685 24.0577 12.7234 24.0481 12.7744 24.0271C12.8253 24.0062 12.8711 23.9744 12.9085 23.934C12.946 23.8936 12.9742 23.8456 12.9913 23.7932C13.0083 23.7408 13.0138 23.6854 13.0072 23.6307C13.0007 23.576 12.9824 23.5233 12.9535 23.4764C12.9246 23.4295 12.8859 23.3895 12.84 23.359C11.72 22.279 7.49 18.439 4.43 15.449C3.49044 14.5645 2.59598 13.6334 1.75 12.659C1.57 12.439 1.51 12.109 1.39 12.129C1.49 11.979 1.74 11.729 1.92 11.509C3.16282 10.11 4.49923 8.79694 5.92 7.57901C8.50898 5.20134 11.2157 2.95518 14.03 0.849011C14.1354 0.810414 14.222 0.733005 14.2722 0.632624C14.3224 0.532243 14.3324 0.416476 14.3 0.309011ZM1.42 12.209V12.299V12.169V12.209Z" fill="black"/>
</svg>
