<svg width="24" height="23" viewBox="0 0 24 23" fill="none" xmlns="http://www.w3.org/2000/svg">
<path d="M10.852 1.25584C11.1913 0.428454 12.363 0.428453 12.7024 1.25584L15.1545 7.23466C15.2982 7.58489 15.6273 7.82399 16.0047 7.85238L22.4487 8.33696C23.3405 8.40401 23.7025 9.5184 23.0205 10.0968L18.0921 14.2765C17.8034 14.5213 17.6777 14.9082 17.7673 15.276L19.2977 21.5543C19.5095 22.4231 18.5616 23.1119 17.8007 22.6419L12.3026 19.2463C11.9806 19.0474 11.5738 19.0474 11.2517 19.2463L5.75361 22.6419C4.99275 23.1119 4.0448 22.4231 4.25659 21.5543L5.78702 15.276C5.87667 14.9082 5.75097 14.5213 5.46227 14.2765L0.533825 10.0968C-0.148199 9.5184 0.213885 8.40401 1.10563 8.33696L7.54959 7.85238C7.92707 7.82399 8.25617 7.58489 8.39981 7.23466L10.852 1.25584Z" fill="#FFB949"/>
</svg>
