<svg width="24" height="23" viewBox="0 0 24 23" fill="none" xmlns="http://www.w3.org/2000/svg">
<path d="M11.1352 1.05613C11.4745 0.228747 12.6462 0.228746 12.9856 1.05613L15.4377 7.03495C15.5814 7.38519 15.9105 7.62429 16.2879 7.65267L22.7319 8.13725C23.6237 8.20431 23.9857 9.31869 23.3037 9.8971L18.3753 14.0768C18.0866 14.3216 17.9609 14.7085 18.0505 15.0763L19.5809 21.3546C19.7927 22.2234 18.8448 22.9121 18.0839 22.4422L12.5858 19.0466C12.2638 18.8477 11.857 18.8477 11.5349 19.0466L6.03681 22.4422C5.27595 22.9121 4.328 22.2234 4.53979 21.3546L6.07023 15.0763C6.15988 14.7085 6.03417 14.3216 5.74547 14.0768L0.817028 9.8971C0.135004 9.31869 0.497088 8.20431 1.38884 8.13725L7.83279 7.65267C8.21027 7.62429 8.53937 7.38519 8.68301 7.03495L11.1352 1.05613Z" fill="#FFF500"/>
</svg>
